<?xml version="1.0" standalone="no"?>
<!DOCTYPE svg PUBLIC "-//W3C//DTD SVG 1.1//EN" "http://www.w3.org/Graphics/SVG/1.1/DTD/svg11.dtd" >
<svg xmlns="http://www.w3.org/2000/svg">
<metadata>Generated by IcoMoon</metadata>
<defs>
<font id="icomoon" horiz-adv-x="1024">
<font-face units-per-em="1024" ascent="960" descent="-64" />
<missing-glyph horiz-adv-x="1024" />
<glyph unicode="&#x20;" horiz-adv-x="512" d="" />
<glyph unicode="&#xe600;" glyph-name="untitled167" d="M590.404 337.681c-22.596 0-40.619 14.78-40.619 37.649v41.438c0 22.869 18.022 39.526 40.619 39.526h245.658v-118.579l-245.658-0.034zM621.329 425.37c-16.896 0-30.618-13.926-30.618-31.095 0-17.135 13.722-31.027 30.618-31.027 16.964 0 30.72 13.892 30.72 31.027 0.034 17.169-13.756 31.095-30.72 31.095v0zM529.374 416.734v-41.438c0-34.304 27.17-63.078 61.030-63.078h203.298v-84.651c0-34.372-26.010-59.324-59.87-59.324h-429.397c-33.86 0-61.303 27.785-61.303 62.123v393.421c0 34.304 25.429 61.167 59.255 61.167h194.833l-50.859-25.395h-152.439c-16.964 0-30.379-7.817-30.379-24.986 0-17.135 13.449-34.304 30.379-34.304h499.78v-118.579h-203.298c-33.86 0-61.030-30.652-61.030-64.956v0zM324.881 561.664h-40.892v-41.404h20.446v20.685h20.446v20.719zM324.881 499.541h-40.892v-41.404h21.299l-0.853 20.685 20.446-0.41v21.129zM324.881 437.419h-40.892v-41.404h20.89l-0.444 20.719h20.446v20.685zM324.881 375.296h-40.892v-41.404h20.89l-0.444 20.719 20.446-0.512v21.197zM324.881 313.173h-40.892v-41.404h20.446v20.685h20.446v20.719zM324.881 251.051h-40.892v-41.438h20.89l-0.444 20.309h20.446v21.129zM406.699 625.050l240.265 102.263 46.012-102.263h-286.276zM685.705 685.909h48.128c17.886 0 31.744-13.961 42.906-26.351h-84.685l-6.349 26.351z" />
<glyph unicode="&#xe601;" glyph-name="untitled166" d="M818.586 220.467c-19.183 0-34.714 15.292-34.714 34.133v409.6c0 18.842 15.531 34.133 34.714 34.133 19.217 0 34.748-15.292 34.748-34.133v-409.6c0-18.842-15.531-34.133-34.748-34.133v0zM644.983 265.967c0-25.122-20.685-45.5-46.251-45.5h-208.35c-25.566 0-46.285 20.378-46.285 45.5v90.112l-92.365 20.241v164.454l509.781 110.421v-386.492l-116.497 25.498v-24.235h-0.034zM621.841 295.253l-254.601 55.74v-85.026c0-12.561 10.377-22.733 23.142-22.733h208.35c12.766 0 23.108 10.172 23.108 22.733v29.286zM205.21 357.001c-12.8 0-23.142 10.206-23.142 22.733v159.3c0 12.561 10.377 22.767 23.142 22.767s23.177-10.172 23.177-22.767v-159.3c-0.034-12.527-10.411-22.733-23.177-22.733v0z" />
<glyph unicode="&#xe602;" glyph-name="untitled165" d="M442.743 388.471h-249.446v113.425h249.446l1.468 74.615 140.083-127.761-140.083-134.895-1.468 74.615zM323.379 161.655v136.055h45.329v-68.062h272.179v453.598h-272.179l0.614-89.259-45.943-1.399v158.72h430.899v-589.619l-430.899-0.034z" />
<glyph unicode="&#xe603;" glyph-name="untitled164" d="M698.88 366.251h-47.855v258.389h-86.118v66.97h-229.615v-459.332h181.794v-38.263h-229.683v545.417h319.044l93.013-90.18-0.58-282.999zM714.991 235.793l65.707-65.809c4.267-4.267 4.267-11.196 0-15.462l-23.211-23.211c-4.233-4.267-11.127-4.267-15.428 0l-65.707 65.741-65.673-65.741c-4.301-4.267-11.196-4.267-15.497 0l-23.177 23.211c-4.301 4.267-4.301 11.196 0 15.462l65.707 65.809-65.707 65.673c-4.301 4.267-4.301 11.196 0 15.462l23.177 23.279c4.301 4.198 11.196 4.198 15.497 0l65.673-65.809 65.707 65.809c4.301 4.198 11.196 4.198 15.428 0l23.211-23.279c4.267-4.267 4.267-11.196 0-15.462l-65.707-65.673z" />
<glyph unicode="&#xe604;" glyph-name="untitled163" d="M767.829 567.33h-340.992c-33.417 0-56.866-34.884-56.866-68.267v-261.427c0-33.382 23.45-56.798 56.866-56.798l82.978 1.195 80.896-80.794 80.964 80.794 92.331-2.219c33.417 0 60.655 29.525 60.655 62.874v259.755c0 33.382-23.415 64.887-56.832 64.887v0zM733.73 646.895c0 33.348-30.515 34.099-63.898 34.099h-364.203c-33.382 0-60.689-21.367-60.689-54.716v-282.931c0-33.348 9.865-60.621 43.247-60.621l24.951 0.444c0 0-4.745 262.315-0.341 258.389 1.126 32.495 35.226 82.466 68.574 82.637h352.358v22.699z" />
<glyph unicode="&#xe605;" glyph-name="untitled162" d="M705.263 233.335l-270.848 83.49 241.732 284.74-311.945-264.363-253.269 76.595 733.833 354.611-139.503-535.074zM425.916 127.59v147.217l89.122-25.566-89.122-121.651z" />
<glyph unicode="&#xe606;" glyph-name="untitled161" d="M254.805 382.874v183.876h227.123v-183.876h-227.123zM542.071 382.874v183.876h227.089v-183.876h-227.089zM254.805 139.401v183.945h227.123v-183.945h-227.123zM542.071 139.401v183.945h227.089v-183.945h-227.089zM511.898 557.5l-43.52 199.1h87.006l-43.486-199.1zM338.944 667.853l61.508 60.894 111.479-171.213-172.988 110.319zM511.898 557.5l111.479 171.213 61.508-60.894-172.988-110.319z" />
<glyph unicode="&#xe607;" glyph-name="untitled160" d="M531.9 778.82c-146.978 0-270.677-98.987-307.337-233.54-0.341-1.229-0.444-2.526-0.751-3.755h-50.074l97.997-97.382 97.929 97.382h-57.412c0.546 1.434 1.058 2.833 1.604 4.233 11.708 29.423 29.389 55.808 51.439 77.892 3.584-5.632 7.407-11.605 11.742-18.398 30.31-47.138 53.862-86.596 70.724-118.409-18.5 0-47.309 0.41-86.289 1.263v-32.222h101.035c8.124-17.306 14.268-32.358 18.5-45.158h-119.535v-31.403c53.897 0.785 96.802 1.263 128.819 1.263 0-45.841-0.614-94.925-1.809-147.046-76.186 13.756-139.469 64.307-170.394 132.54-0.375 0.751-0.58 1.638-0.922 2.389l-62.396-61.611c0.41-0.751 0.717-1.57 1.126-2.287 0.102-0.171 0.205-0.341 0.307-0.478 55.023-94.549 157.901-158.14 275.695-158.14 175.821 0 318.327 141.653 318.327 316.45 0 174.763-142.507 316.416-318.327 316.416zM480.427 565.282c-36.386 65.399-54.545 99.055-54.545 101.035h-2.116c31.949 16.418 68.164 25.771 106.598 25.771 38.4 0 74.547-9.387 106.428-25.771h-2.15c0-3.345-16.213-37.308-48.606-101.888-32.427-64.58-48.64-109.397-48.64-134.485h-2.526c0.034 24.815-18.125 69.939-54.443 135.339zM561.425 231.97c-1.638 44.988-2.526 94.379-2.526 148.617 37.308 0 80.964-0.478 130.935-1.263v31.403h-120.388c3.891 10.854 10.547 25.941 19.763 45.158h100.625v32.222c-35.089-0.853-63.42-1.536-85.060-2.082 16.282 30.379 40.141 69.871 71.578 118.409 5.632 8.704 10.513 16.418 14.882 23.313 44.134-42.086 71.817-101.205 71.817-166.878-0.034-117.214-87.859-213.845-201.626-228.898z" />
<glyph unicode="&#xe608;" glyph-name="untitled159" d="M836.745 186.334h-83.593v27.17c15.394 0 27.853 12.151 27.853 27.204 0 14.985-12.459 27.17-27.853 27.17h-55.74c-15.394 0-27.853-12.151-27.853-27.17s12.459-27.204 27.853-27.204v-27.17h-342.938v27.17c15.394 0 27.853 12.151 27.853 27.204 0 14.985-12.459 27.17-27.853 27.17h-55.74c-15.394 0-27.887-12.151-27.887-27.17s12.493-27.204 27.887-27.204v-27.17h-111.514c-30.788 0-55.74 24.337-55.74 54.374v380.484c0 30.037 24.917 54.374 55.74 54.374h649.523c30.788 0 55.808-24.337 55.808-54.374v-380.484c-0.034-30.037-25.020-54.374-55.808-54.374v0zM354.475 599.142c-33.655 0-60.962-35.021-60.962-78.165s27.307-78.131 60.962-78.131 60.996 34.953 60.996 78.131-27.307 78.165-60.996 78.165v0zM451.789 412.262c-14.985 9.762-58.266 16.247-58.266 16.247s-28.058-29.184-39.97-29.184-39.97 29.184-39.97 29.184-43.247-6.451-58.231-16.247c-15.019-9.728-21.675-61.44-21.675-61.44h240.162c0-0.034-4.369 49.937-22.050 61.44v0zM781.005 566.818h-250.88v-27.17h250.88v27.17zM781.005 512.478h-250.88v-27.204h250.88v27.204zM781.005 458.138h-250.88v-27.204h250.88v27.204zM781.005 403.763h-250.88v-27.17h250.88v27.17z" />
<glyph unicode="&#xe609;" glyph-name="untitled158" d="M178.483 567.501l224.973-218.658v132.506c68.096 0 241.562-1.536 241.562-181.794 0-94.413-66.219-173.158-154.317-191.386 141.517 19.388 250.982 140.698 250.982 289.075 0 275.558-291.328 277.879-338.227 277.879v112.777l-224.973-220.399z" />
<glyph unicode="&#xe60a;" glyph-name="untitled157" d="M380.143 565.965c0 0 17.169 111.65 115.098 166.639l7.305 67.004h15.462l8.158-67.004c0 0 92.774-50.961 113.391-166.639h-259.413zM362.121 477.218c0 0-271.428-121.993 0-352.188 0 0-12.971 272.179 0 352.188zM661.914 477.218c0 0 271.428-121.993 0-352.188 0 0 12.937 272.179 0 352.188zM452.301 163.977h127.147v-34.372h-127.147v34.372zM481.485 121.583h68.745v-25.19h-68.745v25.19zM380.143 549.956c0 0-32.051-267.981 66.423-369.937h132.847c0 0 67.584 19.456 69.871 369.937h-269.141zM509.85 411.068c-30.822 0-55.842 24.986-55.842 55.842 0 30.822 24.986 55.842 55.842 55.842s55.842-24.986 55.842-55.842c0-30.857-24.986-55.842-55.842-55.842z" />
<glyph unicode="&#xe60b;" glyph-name="untitled156" d="M749.261 135.714h-474.522c-23.825 0-43.145 19.285-43.145 43.042v473.6c0 23.791 19.319 43.076 43.145 43.076h43.11v-21.504c0-35.669 28.979-64.614 64.717-64.614 35.703 0 64.717 28.945 64.717 64.614v21.504h129.365v-21.504c0-35.669 29.013-64.614 64.717-64.614 35.772 0 64.717 28.945 64.717 64.614v21.504h43.179c23.791 0 43.11-19.251 43.11-43.076v-473.634c0-23.723-19.319-43.008-43.11-43.008v0zM750.080 548.352h-476.16v-370.347h476.126v370.347h0.034zM390.315 431.957h-74.069v74.069h74.035v-74.069h0.034zM390.315 326.144h-74.069v74.069h74.035v-74.069h0.034zM390.315 220.331l-72.465 1.468-1.604 72.602h74.035v-74.069h0.034zM496.128 431.957h-74.069v74.069h74.069v-74.069zM496.128 220.331h-74.069v74.069h74.069v-74.069zM601.941 431.957h-74.069v74.069h74.069v-74.069zM601.941 326.144h-74.069v74.069h74.069v-74.069zM707.721 431.957h-74.069v74.069h74.069v-74.069zM707.721 326.144h-74.069v74.069h74.069v-74.069zM706.116 221.798l-72.431-1.468v74.069h74.069l-1.638-72.602zM683.213 717.619v-44.407c0-23.415-19.046-42.359-42.462-42.359-23.484 0-42.462 18.944-42.462 42.359v44.407zM424.38 717.619v-44.407c0-23.415-19.012-42.359-42.462-42.359-23.484 0-42.462 18.944-42.462 42.359v44.407z" />
<glyph unicode="&#xe60c;" glyph-name="untitled155" d="M710.212 412.57v194.731h-109.978v83.115h-274.773v-497.084h192.649v-55.467h-247.569v607.983h382.942l111.65-109.090v-224.154l-54.921-0.034zM363.042 498.893v54.579h308.565v-54.579h-308.565zM357.717 358.502v49.357h316.587v-49.357h-316.587zM669.047 98.987c-73.353 0-132.847 59.972-132.847 133.905 0 74.001 59.46 133.973 132.847 133.973 73.25 0 132.779-59.972 132.779-133.973-0.034-73.933-59.529-133.905-132.779-133.905v0zM743.117 279.893l-13.175 13.278c-2.389 2.458-6.417 2.458-8.806 0l-79.223-79.872-37.751 38.298c-2.423 2.423-6.349 2.423-8.772 0l-13.244-13.38c-2.389-2.492-2.389-6.417 0-8.909l41.916-42.53c0.068-0.068 0.102-0.171 0.171-0.239l9.079-9.148 2.185-2.219 1.911-1.911c2.458-2.492 6.417-2.492 8.841 0l96.87 97.69c2.492 2.492 2.492 6.451 0 8.943v0z" />
<glyph unicode="&#xe60d;" glyph-name="untitled154" d="M463.155 525.141l26.078-50.927h0.819v-0.41h-32.563v-11.776h32.563v-17.306h-32.563v-11.742h32.563v-67.925h-24.542v-11.708h92.877v11.708h-23.313v67.925h31.403v11.742h-31.403v17.306h31.403v11.742h-31.403v3.277h-0.341l27.238 48.094v0.375h20.548v11.742h-56.286v-11.742h14.78l-27.58-48.435h-4.335l-25.156 48.435h13.756v11.742h-56.252v-11.742h21.709zM627.132 610.133v106.223c-7.236 33.075-48.811 29.696-57.617 0v-106.223h-20.651v129.331c-14.131 31.471-44.407 30.993-57.583 0v-129.331h-20.753v107.554c-12.39 26.317-43.588 32.017-57.583 0v-107.554h-20.685v83.081c-10.001 25.19-42.974 33.519-57.549 0v-83.081h-99.157v-303.070h102.332c3.038-103.322 82.33-186.607 179.098-186.607 96.734 0 176.094 83.217 179.098 186.607h92.399v303.070h-161.348zM769.263 323.413h-75.878v140.561c-10.001 51.473-43.008 68.267-57.617 0v-140.561h-384.034v268.937h517.53v-268.937zM441.446 537.259h56.252v-11.742h-13.756l25.156-48.435h4.335l27.58 48.435h-14.78v11.742h56.286v-11.742h-20.582v-0.375l-27.238-48.094h0.341v-3.277h31.403v-11.742h-31.403v-17.306h31.403v-11.742h-31.403v-67.925h23.347v-11.742h-92.877v11.742h24.542v67.925h-32.563v11.742h32.563v17.306h-32.563v11.776h32.563v0.41h-0.819l-26.078 50.927v0.375h-21.709v11.742z" />
<glyph unicode="&#xe60e;" glyph-name="untitled153" d="M719.019 165.99h-417.212c-38.366 0-69.53 31.607-69.53 70.383v404.139c0 38.775 31.164 70.315 69.53 70.315h417.246c38.263 0 69.53-31.505 69.53-70.315v-404.139c0-38.775-31.266-70.383-69.564-70.383v0zM732.126 622.558c0 17.647-14.199 32.017-31.71 32.017h-380.006c-17.476 0-31.676-14.37-31.676-32.017v-368.196c0-17.715 14.234-32.051 31.676-32.051h380.041c17.51 0 31.71 14.37 31.71 32.051v368.196h-0.034zM677.308 529.237h-264.226c-9.626 0-19.456 12.937-19.456 22.63 0 9.762 9.83 19.285 19.456 19.285h264.226c9.557 0 24.371-9.523 24.371-19.285 0-9.694-14.814-22.63-24.371-22.63v0zM677.308 417.519h-264.226c-9.626 0-19.456 14.234-19.456 23.927 0 9.762 7.782 17.613 17.408 17.613h273.169c9.626 0 17.442-7.851 17.442-17.613 0.034-9.694-14.78-23.927-24.337-23.927v0zM684.237 307.132h-273.169c-9.626 0-17.408 7.817-17.408 17.51s9.83 23.040 19.456 23.040h278.084c9.66 0 10.513-13.38 10.513-23.040s-7.851-17.51-17.476-17.51v0zM329.626 529.237v41.916h41.711v-41.916h-41.711zM329.626 417.519v41.882h41.711v-41.882h-41.711zM329.626 305.732v41.95h41.711v-41.95h-41.711z" />
<glyph unicode="&#xe60f;" glyph-name="untitled152" d="M512 736.7c-159.437 0-288.7-129.263-288.7-288.7s129.263-288.734 288.7-288.734c159.437 0 288.734 129.297 288.734 288.734s-129.297 288.7-288.734 288.7zM512 202.138c-135.782 0-245.862 110.080-245.862 245.862s110.080 245.862 245.862 245.862c135.817 0 245.862-110.080 245.862-245.862 0-135.817-110.046-245.862-245.862-245.862zM512 427.93c0-10.001-8.738-18.022-19.558-18.022v0c-10.786 0-19.524 8.021-19.524 18.022v193.536c0 9.967 8.738 18.057 19.524 18.057v0c10.82 0 19.558-8.055 19.558-18.022v-193.57zM489.233 409.907c-9.011 0-16.316 8.738-16.316 19.524v0c0 10.786 7.305 19.524 16.316 19.524h175.104c9.045 0 16.35-8.738 16.35-19.524v0c0-10.786-7.305-19.524-16.35-19.524h-175.104z" />
<glyph unicode="&#xe610;" glyph-name="untitled151" d="M388.642 129.024c-136.533 76.254-172.476 148.514-151.927 247.057 15.155 72.806 71.168 132.062 75.947 204.732 21.197-38.263 23.757-65.877 26.112-105.882 67.516 81.988 137.523 191.659 122.402 292.045 0 0 168.209-119.603 179.814-274.295 15.087 31.881 35.191 142.268 20.070 175.070 45.397-32.802 298.667-344.064-48.538-538.726 65.297 125.918 16.862 295.902-96.461 374.409 7.543-33.724-1.843-121.89-52.019-177.152 11.332 57.207-17.067 113.664-17.067 113.664s-9.25-71.68-45.397-124.006c-32.939-47.753-55.808-98.441-12.937-186.914v0z" />
<glyph unicode="&#xe611;" glyph-name="untitled150" d="M768.99 310.477l42.906-20.207c0 0-0.717-38.195-40.823-38.195h-21.572l20.514 41.131h-20.685l-22.63-41.131h-42.121l20.582 41.131h-20.753l-22.63-41.131h-40.858l20.617 41.131h-20.753l-22.596-41.131h-42.155l20.582 41.131h-20.685l-22.767-41.131h-40.858l20.617 41.131h-20.787l-22.562-41.131h-42.223l20.617 41.131h-20.753l-22.562-41.131h-40.892l20.617 41.131h-20.855l-22.528-41.131h-42.223l20.582 41.131h-20.787l-22.562-41.131h-21.948c0 0-7.509 0.205-16.009 3.209l17.033 37.922h-20.753l-14.234-24.986c-4.403 5.837-7.509 13.653-7.509 24.713v0.717l42.837 20.105v22.050l-42.837-22.050v38.946l42.837 20.105v22.118l-42.837-22.118v42.223l42.837 20.139v22.050l-42.837-22.050v42.155l42.837 20.139v22.050l-42.837-22.050v42.223l42.837 9.694-1.024 0.785 192.58-142.95c0 0 34.133-31.915 64.307-31.915 0 0 26.522-3.823 66.048 30.583l234.598 172.066v-18.227l-19.388 3.925-12.766-10.411 32.154-13.585v-42.223l-42.906 22.050v-22.050l42.906-20.139v-42.155l-42.906 22.050v-22.050l42.906-20.139v-42.223l-42.906 22.118v-22.118l42.906-20.105v-42.155l-42.906 22.050v-22.084h-0.034zM749.295 251.665h-22.767l0.137 0.41h22.835l-0.205-0.41zM684.339 251.665h-22.801l0.171 0.41h22.835l-0.205-0.41zM620.715 251.665h-22.767l0.171 0.41h22.733l-0.137-0.41zM555.793 251.665h-22.835l0.205 0.41h22.767l-0.137-0.41zM492.1 251.665h-22.733l0.171 0.41h22.767l-0.205-0.41zM427.179 251.665h-22.767l0.205 0.41h22.733l-0.171-0.41zM363.52 251.665h-22.699l0.171 0.41h22.733l-0.205-0.41zM298.564 251.665h-22.699l0.171 0.41h22.767l-0.239-0.41zM237.022 252.996l-10.035 8.158c3.584-2.662 7.339-4.506 11.059-5.905l-1.024-2.253zM224.905 262.827l2.048-1.673c-0.717 0.614-1.331 1.161-2.048 1.673v0zM219.546 267.264l0.546 0.922c1.468-2.048 3.106-3.823 4.847-5.359l-5.393 4.437zM212.582 581.154l22.596-16.759-22.596-4.71v21.47zM235.793 564.531l18.603-14.404-19.217 14.302 0.614 0.102zM471.723 415.71l-259.618 187.324c0 0-1.638 41.301 42.667 41.301h516.301c0 0 40.789-3.004 40.789-43.895l-255.795-184.73c0 0-39.458-41.54-84.343 0v0zM546.236 604.501l-108.203-0.137c-9.933 12.766-25.805 20.924-43.486 20.924-29.867 0-54.067-26.044-54.067-55.023 0-28.945 24.235-50.654 54.067-50.654 23.518 0 34.167 8.909 43.998 22.187l84.685-0.205c5.939 0 10.786 3.755 10.786 9.523s-4.847 11.913-10.786 11.913l-75.23 0.102c0.41 2.526 0.58 4.506 0.58 7.168 0 3.038-0.41 9.216-1.126 12.698l98.748 0.171c6.349 0 11.435 4.062 11.435 10.172 0.034 6.076-5.086 11.162-11.401 11.162v0zM394.377 542.242c-17.579 0-31.812 13.79-31.812 30.788 0 17.067 14.234 30.891 31.812 30.891 17.545 0 31.812-13.824 31.812-30.891 0-16.998-14.268-30.788-31.812-30.788v0z" />
<glyph unicode="&#xe612;" glyph-name="untitled149" d="M719.019 165.99h-417.212c-38.366 0-69.53 31.607-69.53 70.383v404.139c0 38.775 31.164 70.315 69.53 70.315h417.246c38.263 0 69.53-31.505 69.53-70.315v-404.139c0-38.775-31.266-70.383-69.564-70.383v0zM732.126 622.558c0 17.647-14.199 32.017-31.71 32.017h-380.006c-17.476 0-31.676-14.37-31.676-32.017v-368.196c0-17.715 14.234-32.051 31.676-32.051h380.041c17.51 0 31.71 14.37 31.71 32.051v368.196h-0.034zM677.308 529.237h-264.226c-9.626 0-19.456 12.937-19.456 22.63 0 9.762 9.83 19.285 19.456 19.285h264.226c9.557 0 24.371-9.523 24.371-19.285 0-9.694-14.814-22.63-24.371-22.63v0zM677.308 417.519h-264.226c-9.626 0-19.456 14.234-19.456 23.927 0 9.762 7.782 17.613 17.408 17.613h273.169c9.626 0 17.442-7.851 17.442-17.613 0.034-9.694-14.78-23.927-24.337-23.927v0zM684.237 307.132h-273.169c-9.626 0-17.408 7.817-17.408 17.51s9.83 23.040 19.456 23.040h278.084c9.66 0 10.513-13.38 10.513-23.040s-7.851-17.51-17.476-17.51v0zM329.626 529.237v41.916h41.711v-41.916h-41.711zM329.626 417.519v41.882h41.711v-41.882h-41.711zM329.626 305.732v41.95h41.711v-41.95h-41.711z" />
<glyph unicode="&#xe613;" glyph-name="untitled148" d="M252.826 485.99c-11.537-10.172-20.821-2.185-20.821-2.185l-63.351 96.666c-6.758 12.902-0.717 20.275-0.717 20.275l17.749 10.445 67.14-125.201zM206.609 623.411l108.476 63.522c17.545 17.647 67.686 21.675 67.686 21.675h41.882c-1.297-82.022 86.665-87.484 86.665-87.484 89.259 0 88.030 87.484 88.030 87.484h41.95c48.606 0 66.287-21.675 66.287-21.675l108.134-64-65.365-120.047-64.614 32.836-0.683-325.427c-79.906-24.439-173.739-22.869-173.739-22.869-94.72 0-171.861 22.869-171.861 22.869l-0.683 325.427-65.434-33.109-66.731 120.798zM772.506 484.42c0 0 11.127-9.796 20.309 0.683 5.188 6.281 45.056 71.817 62.259 100.284 8.055 13.653-0.649 14.746-0.649 14.746l-16.145 9.557-65.775-125.269z" />
<glyph unicode="&#xe614;" glyph-name="untitled147" d="M727.518 374.818c0.853 10.547 23.484 25.020 23.484 35.635-0.068 11.093-19.797 29.73-18.295 40.789 1.161 8.738 17.749 21.777 18.227 30.583 0.956 16.009-21.231 47.445-36.523 53.487-24.166 9.626-147.319 5.086-147.319 5.086-12.083 20.617 21.402 71.373 30.618 93.252 13.517 32.188 11.23 74.752-5.871 96.666-20.89 26.726-59.187 28.467-60.006 16.589-5.7-86.869-22.699-110.933-45.5-128.068-13.687-10.308-25.634-19.388-31.949-34.987-38.775-96.631-70.11-127.625-85.129-130.97l-50.688-0.102v-207.94l155.955-20.343c0 0 142.848-13.278 187.802 0 14.131 4.096 38.571 24.849 44.339 38.161 3.311 7.612-1.297 25.702 2.628 33.143 5.769 10.889 30.003 24.576 30.003 39.424-0.034 10.684-12.663 29.047-11.776 39.595v0z" />
<glyph unicode="&#xe615;" glyph-name="untitled146" d="M734.379 569.207v71.305h-518.895v-391.987c0-19.695 16.589-35.635 37.069-35.635h500.361c30.686 0 55.603 23.927 55.603 53.419v302.933l-74.138-0.034zM697.31 248.491h-444.757v356.352h444.757v-356.352zM289.553 533.606h370.688v-35.703h-370.688v35.703zM511.966 462.302h148.309v-35.601h-148.309v35.601zM511.966 391.031h148.309v-35.635h-148.309v35.635zM511.966 319.761h111.206v-35.669h-111.206v35.669zM289.553 462.302h185.378v-178.21h-185.378v178.21z" />
<glyph unicode="&#xe616;" glyph-name="untitled145" d="M425.028 207.531c0-19.388-15.77-35.157-35.191-35.157h-51.405c-19.388 0-25.395 27.853-25.395 47.377v247.296c0 19.49 18.534 38.025 37.922 38.025h37.888c19.388 0 37.888-18.534 37.888-38.025l-1.707-259.516zM597.231 219.716c0-19.49-19.934-40.073-39.322-40.073h-56.32c-19.388 0-36.898 20.582-36.898 40.073v304.401c0 19.388 18.5 38.059 37.82 38.059h56.866c20.002-0.307 41.199-25.839 37.99-43.861l-0.137-298.598zM723.422 182.101h-58.743c-19.388 0-29.594 18.125-29.594 37.649v475.648c0 19.49 10.206 38.025 29.594 38.025h58.743c19.388 0 25.395-18.534 25.395-38.025v-475.648c0-19.524-5.973-37.649-25.395-37.649v0zM855.825 162.611h-687.684c-14.097 0-25.532 11.469-25.532 25.6 0 14.165 4.847 31.539 18.91 31.539h700.962c14.165 0 18.91-17.374 18.91-31.539-0.034-14.131-11.469-25.6-25.566-25.6v0z" />
<glyph unicode="&#xe617;" glyph-name="untitled144" d="M756.053 364.612c-51.917-11.639-158.549-142.541-193.058-206.541-49.015 61.065-106.667 107.588-147.046 122.129l95.13 58.231 46.148-90.249c0 0 74.889 183.33 193.092 244.429-2.935-43.691-14.37-81.476 5.734-128v0zM681.131 647.919c0 10.206-7.919 18.534-17.852 18.534h-71.612v37.205h88.337c19.797 0 36.932-16.623 36.932-37.171v-177.084c-20.378-8.465-35.806-26.18-35.806-26.18v184.695zM627.405 647.919c9.899 0 17.92-8.329 17.92-18.603 0-10.308 0-37.205 0-37.205h-251.733c0 0 0 26.931 0 37.205s8.021 18.603 17.852 18.603h53.726c0 0 0.205 23.689 0.205 53.862 0 31.437 23.245 57.651 53.487 57.651 30.208 0 55.398-27.58 55.398-57.822 0-32.529-0.546-53.692-0.546-53.692h53.692zM518.929 703.659c-9.899 0-17.92-8.329-17.92-18.569s8.055-18.569 17.92-18.569 17.92 8.363 17.92 18.569c0.034 10.24-8.055 18.569-17.92 18.569v0zM357.786 647.919v-428.749c0-10.24 8.021-18.569 17.886-18.569h106.325c19.388-10.718 31.915-24.917 38.912-37.171h-163.123c-19.763 0-35.772 16.623-35.772 37.171v465.886c0 20.548 16.009 37.171 35.772 37.171h90.658v-37.171h-72.738c-9.899 0-17.92-8.329-17.92-18.569v0zM663.279 200.636c9.933 0 17.852 8.329 17.852 18.569v61.679c12.015 12.527 23.927 23.996 35.806 34.065v-114.313c0-20.582-17.135-37.171-36.932-37.171h-91.102c7.817 12.186 16.316 24.678 25.293 37.171h49.084z" />
<glyph unicode="&#xe618;" glyph-name="untitled143" d="M761.003 407.245c0-136.533-110.66-247.228-247.194-247.228s-247.228 110.694-247.228 247.228c0 132.335 104.107 240.060 234.837 246.545v42.667h-18.534c-10.923 0-19.763 8.841-19.763 19.763 0 10.889 8.841 19.763 19.763 19.763h59.324c10.889 0 19.763-8.875 19.763-19.763 0-10.923-8.875-19.763-19.763-19.763h-21.026v-42.428c133.086-3.925 239.821-112.811 239.821-246.784v0zM501.419 577.809v45.124c-61.235-3.482-115.541-32.324-152.951-75.981l32.597-32.597-13.926-14.029-30.891 30.891c-25.122-35.396-40.038-78.541-40.038-125.235 0-2.15 0.307-4.949 0.307-4.949h47.923v-19.763h-46.524c4.847-40.482 20.855-78.609 44.646-109.056l24.542 24.542 13.926-13.995-25.532-25.532c37.001-39.287 88.371-64.922 145.92-68.198v53.726h19.763v-53.965c58.914 1.98 111.65 27.443 149.641 67.14l-28.023 28.058 13.926 13.995 27.136-27.17c24.474 30.754 40.892 69.427 45.705 110.455h-50.21v19.763h51.644c0.068 2.082 0.307 2.799 0.307 4.949 0 47.991-15.735 92.16-42.052 128.068l-32.529-32.461-13.926 14.029 33.929 33.963c-38.298 43.383-93.628 71.441-155.546 73.591v-45.363h-19.763zM522.411 401.067h69.222c5.427 0 9.865-4.471 9.865-9.899 0-5.564-4.437-9.865-9.865-9.865h-79.053c-5.495 0-9.933 4.301-9.933 9.865v137.148c0 5.564 4.403 9.967 9.933 9.967 5.393 0 9.865-4.403 9.865-9.967v-127.249h-0.034z" />
<glyph unicode="&#xe619;" glyph-name="untitled142" d="M770.594 298.564l-139.332 131.447 131.482 139.401c6.588 6.963 6.281 18.022-0.717 24.61l-76.083 71.68c-6.929 6.554-17.954 6.281-24.576-0.717l-131.482-139.401-139.366 131.482c-6.963 6.622-17.954 6.281-24.61-0.717l-71.68-76.049c-6.554-6.997-6.281-17.988 0.717-24.644l139.332-131.379-131.447-139.435c-6.588-6.929-6.212-17.954 0.751-24.576l76.015-71.68c7.031-6.588 18.057-6.315 24.644 0.683l131.447 139.366 139.332-131.413c7.066-6.622 18.057-6.281 24.644 0.717l71.748 76.083c6.519 6.895 6.212 17.988-0.819 24.542v0z" />
<glyph unicode="&#xe61a;" glyph-name="untitled141" d="M641.502 194.697h-262.554c-33.143 0-59.426 14.711-59.426 47.889v346.010c0 2.628 0.239 2.458 0.512 4.915h384c0.273-2.458 0.546-2.287 0.546-4.915v-345.975c-0.034-33.212-29.867-47.923-63.078-47.923v0zM422.571 554.974h-31.642v-313.412h31.642v313.412zM526.814 554.974h-31.676v-313.412h31.676v313.412zM630.955 554.974h-31.676v-313.412h31.676v313.412zM382.874 670.481h108.51l2.799 30.822h59.46l3.004-30.822h84.855c30.652 0 55.842-20.924 59.563-51.337h-377.685c3.721 30.379 28.979 51.337 59.494 51.337v0z" />
<glyph unicode="&#xe61b;" glyph-name="untitled140" d="M516.062 743.629c-163.328 0-295.629-132.335-295.629-295.629s132.301-295.595 295.629-295.595c163.294 0 295.595 132.335 295.595 295.595s-132.301 295.629-295.595 295.629v0zM617.711 614.298c20.412 0 36.898-16.555 36.898-36.966s-16.486-36.932-36.898-36.932c-20.48 0-36.966 16.521-36.966 36.932s16.486 36.966 36.966 36.966v0zM414.447 614.298c20.412 0 36.966-16.555 36.966-36.966s-16.521-36.932-36.966-36.932-36.966 16.521-36.966 36.932c0 20.412 16.555 36.966 36.966 36.966v0zM367.343 312.013c16.691 29.73 40.243 54.75 68.233 72.021 28.774 17.954 61.713 27.477 95.164 27.477s66.355-9.489 95.164-27.477c28.023-17.306 51.507-42.291 68.233-72.021l4.676-8.363c0 0-58.709 69.052-168.073 69.052-115.132 0-168.004-69.052-168.004-69.052l4.608 8.363z" />
<glyph unicode="&#xe61c;" glyph-name="untitled139" d="M512 746.667c-163.191 0-295.424-133.7-295.424-298.667 0-164.898 132.233-298.667 295.424-298.667 163.157 0 295.424 133.769 295.424 298.667 0 164.966-132.267 298.667-295.424 298.667v0zM604.331 612.796c14.438 0 26.146-23.62 26.146-52.804s-11.708-52.804-26.146-52.804-26.146 23.62-26.146 52.804 11.708 52.804 26.146 52.804v0zM419.703 612.796c14.37 0 26.078-23.62 26.078-52.804s-11.674-52.804-26.078-52.804c-14.438 0-26.146 23.62-26.146 52.804s11.708 52.804 26.146 52.804v0zM512 261.325c-96.324 0-176.23 81.579-184.661 185.685 54.101-31.607 117.794-49.596 184.661-49.596s130.56 17.954 184.593 49.527c-8.397-104.073-88.269-185.617-184.593-185.617v0z" />
<glyph unicode="&#xe61d;" glyph-name="untitled138" d="M516.062 746.667c-163.089 0-295.322-133.666-295.322-298.667 0-164.932 132.233-298.667 295.322-298.667 163.055 0 295.322 133.734 295.322 298.667 0 165.001-132.267 298.667-295.322 298.667v0zM603.546 291.157h-197.7v39.834h197.7v-39.834zM617.574 616.004c20.446 0 36.898-16.725 36.898-37.376 0-20.617-16.452-37.308-36.898-37.308-20.412 0-36.898 16.691-36.898 37.308 0 20.651 16.486 37.376 36.898 37.376v0zM414.549 616.004c20.412 0 36.932-16.725 36.932-37.376 0-20.617-16.521-37.308-36.932-37.308s-36.932 16.691-36.932 37.308c0 20.651 16.521 37.376 36.932 37.376v0z" />
<glyph unicode="&#xe61e;" glyph-name="untitled137" d="M227.567 759.194h567.74v-86.733h-567.74v86.733zM673.246 511.317c-42.462 41.574-100.591 71.919-165.649 71.919-64.478 0-118.033-26.965-156.467-66.287l-123.597 132.779h568.866l-123.153-138.411zM512.751 562.449c114.483 0 207.394-92.467 207.394-206.404 0-114.074-92.911-206.473-207.394-206.473-114.586 0-207.462 92.399-207.462 206.473 0 113.937 92.877 206.404 207.462 206.404v0zM453.188 336.794l-33.69-112.947 97.553 66.833 97.485-66.765-33.69 112.981 93.935 71.782-118.34 2.901-39.561 111.104-39.356-111.104-118.306-3.106 93.969-71.68z" />
<glyph unicode="&#xe61f;" glyph-name="untitled136" d="M840.909 481.69c0-49.596-50.142-50.551-50.142-50.551l-440.422-63.42 10.547-36.147h397.551c14.404 0 30.959 7.782 30.959-38.4 0-39.731-16.555-36.727-30.959-36.727h-439.945c-14.37 0-25.975 11.435-25.975 25.566 0 11.264-66.662 409.532-66.662 409.532l-43.008-0.068c0 94.379 72.192 75.23 72.192 75.23 53.726 0 52.668-50.79 52.668-50.79l10.991-51.849 472.576 0.649c47.241 0 49.835-49.459 49.835-49.459l-0.205-133.564zM764.416 563.029c0 14.165-11.639 25.566-26.044 25.566h-376.695c-14.37 0-26.044-11.435-26.044-25.566l9.762-93.867c0-14.165 11.639-25.6 26.044-25.6l366.933 64.068c14.404 0 26.044 11.435 26.044 25.6v29.798zM398.268 230.844c29.218 0 52.907-21.675 52.907-50.381s-23.689-51.985-52.907-51.985c-29.184 0-51.302 23.245-51.302 51.985 0.034 28.706 22.153 50.381 51.302 50.381v0zM686.319 230.844c29.184 0 52.873-22.46 52.873-51.2s-23.654-51.985-52.873-51.985c-29.15 0-52.907 23.279-52.907 51.985s23.757 51.2 52.907 51.2v0z" />
<glyph unicode="&#xe620;" glyph-name="untitled135" d="M768.717 151.040c0 0-22.050 1.434-22.050 25.225v-0.717l-469.402-0.785v1.502c0-23.791-22.050-25.225-22.050-25.225-30.788 0-24.883 23.723-24.883 23.723v380.143c0-13.38 46.933-23.791 46.933-23.791v-166.298l469.47-0.683v167.014c0 0 46.933 10.411 46.933 23.791v-380.177c0 0 5.871-23.723-24.951-23.723v0zM723.251 388.676h-422.537l24.201 48.162 374.852-0.717 23.484-47.445zM724.241 555.418c-70.417 0-69.939 70.827-69.939 70.827 0-71.27-71.817-71.27-71.817-71.27-71.953 0-71.953 69.734-71.953 69.734 0-71.27-67.447-69.734-67.447-69.734-73.353 0-71.885 71.27-71.885 71.27 0-71.27-70.451-71.27-70.451-71.27-74.786-1.536-69.905 71.236-69.905 71.236v23.723h562.859v-25.259c-0.034-71.27-69.461-69.257-69.461-69.257v0zM252.348 626.688c0 0 1.434-47.991 49.869-47.991 0 0 45.5 3.482 45.5 47.991h-95.369zM393.148 626.688c0 0 1.468-47.991 49.903-47.991 0 0 45.466 3.482 45.466 47.991h-95.369zM534.016 626.688c0 0 1.502-47.991 49.903-47.991 0 0 45.5 3.482 45.5 47.991h-95.403zM674.884 626.688c0 0 1.434-47.991 49.801-47.991 0 0 45.5 3.482 45.5 47.991h-95.3zM770.185 673.69h-516.403c-12.937 0-23.484 10.65-23.484 23.723l46.967 47.548h469.47c37.478-26.726 46.933-47.548 46.933-47.548 0-13.039-10.513-23.723-23.484-23.723v0z" />
<glyph unicode="&#xe621;" glyph-name="untitled134" d="M212.002 145.033v562.654h47.241v-30.208h35.294v30.208h38.4v-30.208h35.26v30.208h47.036v-28.638h35.226v28.638h38.434v-30.208h35.294v30.208h49.425v-29.423h35.226v29.423h49.425v-30.208h35.191v30.208h39.219v-30.208h35.26v30.208h43.964v-562.654h-599.893zM259.925 239.684h506.505v39.834h-506.505v-39.834zM258.799 327.202h507.665v34.065h-507.665v-34.065zM766.43 396.493v38.639h-506.505v-38.639h506.505zM256.512 483.977h513.331v36.352h-513.331v-36.352zM772.369 596.787h-516.949v-38.4h516.915l0.034 38.4zM731.204 748.715h36.045v-35.977h-36.045v35.977zM657.545 751.002h36.796v-36.762h-36.796v36.762zM574.362 749.5h35.294v-35.26h-35.294v35.26zM489.711 748.715h35.294v-35.226h-35.294v35.226zM414.481 748.715h34.509v-34.475h-34.509v34.475zM331.332 748.715h34.509v-34.475h-34.509v34.475zM257.673 749.5h36.045v-35.977h-36.045v35.977z" />
<glyph unicode="&#xe622;" glyph-name="untitled133" d="M643.038 284.228c-10.889-10.82-13.073-18.842-6.554-23.927 5.086-5.086 12.868-2.799 23.484 6.895 10.547 10.479 13.175 18.432 7.748 23.859-5.086 6.69-13.312 4.335-24.678-6.827zM880.538 397.346c-38.639 38.502-383.317 379.972-383.317 379.972l-300.954 2.526v-305.527l372.907-372.258c0 0 33.519-46.251 72.055-5.188 38.639 41.131 228.932 231.083 228.932 231.083s48.913 30.891 10.377 69.393zM663.893 423.083c16.247-16.452 14.746-34.167-4.506-53.111-19.217-18.978-36.898-20.173-53.18-3.652-16.213 16.35-14.746 34.167 4.506 53.009 19.251 18.91 36.898 20.139 53.18 3.755zM326.383 605.423c-20.582 0-37.239 16.623-37.239 37.171 0 20.446 16.657 37.103 37.239 37.103 20.514 0 37.205-16.657 37.205-37.103 0.034-20.548-16.691-37.171-37.205-37.171zM396.8 478.618c-21.641 22.733-24.030 43.213-7.134 61.406l22.016-22.289c-7.066-9.284-7.134-17.954-0.171-25.805 9.66-9.045 22.153-6.758 37.444 6.758 10.991 12.39 12.39 23.484 4.335 33.28-6.588 5.871-14.814 6.383-24.576 1.399l-21.436 22.903 64.034 57.344 62.601-63.488-14.643-14.473-43.486 44.1-28.809-26.112c10.103-0.068 19.046-4.062 26.863-11.878 19.695-21.572 18.193-43.964-4.608-67.14-23.62-19.354-47.684-17.988-72.431 3.994zM480.836 393.353c-22.391 23.484-16.555 52.907 17.579 88.064 36.796 34.85 66.833 40.858 90.010 18.057 23.62-24.678 17.749-55.159-17.545-91.546-35.294-34.031-65.263-38.878-90.044-14.575zM676.215 250.675c-18.5-18.125-35.806-19.012-52.019-2.56-16.589 16.862-15.701 34.441 2.697 52.599 19.149 19.012 37.137 20.002 53.76 3.209 16.179-16.555 14.643-34.372-4.437-53.248zM567.296 306.961l-10.991 11.127 172.681 57.754 11.025-11.162-172.715-57.719zM643.209 386.355c9.796 10.513 12.186 18.227 7.1 23.415-4.574 6.246-12.425 3.959-23.347-6.895-11.435-11.196-13.995-19.183-7.782-23.859 5.052-5.12 13.005-2.594 24.030 7.339zM573.781 483.84c-9.284 8.602-26.863 0.137-52.736-25.327-25.498-25.122-34.031-42.359-25.498-51.78 9.25-8.636 26.692-0.512 52.122 24.747 25.941 25.498 34.611 42.94 26.112 52.361z" />
<glyph unicode="&#xe623;" glyph-name="untitled132" d="M512 763.733c-174.353 0-315.733-141.38-315.733-315.733 0-174.387 141.38-315.733 315.733-315.733 174.387 0 315.733 141.346 315.733 315.733 0 174.353-141.346 315.733-315.733 315.733zM512 202.684c-135.441 0-245.282 109.875-245.282 245.316s109.841 245.282 245.282 245.282c135.441 0 245.316-109.875 245.316-245.282 0-135.441-109.875-245.316-245.316-245.316zM468.036 333.551h63.351v-59.904h-63.351v59.904zM517.7 633.207c-71.919 2.287-115.302-29.696-130.15-95.915l53.077-17.101c7.987 43.349 32.529 63.898 73.66 61.611 29.628-2.287 46.217-17.101 49.63-44.544 3.447-23.962-10.274-46.217-41.062-66.765-34.236-23.962-50.79-53.077-49.664-87.347v-15.462h53.077v13.722c-2.287 19.422 7.987 36.523 30.857 51.371 44.51 30.822 66.15 65.058 65.058 102.741-5.7 61.747-40.585 94.276-104.482 97.69z" />
<glyph unicode="&#xe624;" glyph-name="untitled131" d="M558.217 85.163c-37.615-10.069-98.065 0-98.065 0s-202.445 15.94-202.445 216.030c0 188.894 193.229 289.69 193.229 289.69h117.419c0 0 195.072-99.874 195.072-290.577 0-190.805-205.21-215.142-205.21-215.142v0zM586.854 437.794c0-2.048-9.762-22.801-29.252-62.225-19.524-39.458-29.286-66.799-29.286-82.125h-1.502c0 15.121-10.923 42.701-32.836 82.637-21.879 39.902-32.802 60.484-32.802 61.713h-51.746c0-1.399 7.441-13.79 22.289-37.342 18.261-28.74 32.461-52.838 42.633-72.226-11.162 0-28.467 0.205-51.951 0.717v-19.695h60.826c4.949-10.581 8.636-19.729 11.162-27.58h-71.987v-19.217c32.461 0.546 58.3 0.717 77.585 0.717 0-30.447-0.41-63.215-1.263-98.27h44.373c-1.161 29.389-1.775 62.191-1.775 98.27 22.426 0 48.777-0.239 78.848-0.717v19.217h-72.465c2.321 6.622 6.315 15.838 11.878 27.58h60.587v19.695c-21.094-0.58-38.195-0.922-51.234-1.297 9.796 18.534 24.166 42.701 43.11 72.329 14.916 23.45 22.289 36.045 22.289 37.751l-47.479 0.068zM569.276 605.867h-118.374v44.851h118.374v-44.851zM452.779 665.668l-61.065 147.729c0 0 36.079-29.867 58.231-29.867 22.221 0 60.143 30.822 60.143 30.822s35.089-30.822 57.276-30.822c22.255 0 60.245 31.812 60.245 31.812l-60.245-149.606-114.586-0.068z" />
<glyph unicode="&#xe625;" glyph-name="untitled130" d="M176.947 143.838v66.15c0 76.015 61.713 137.557 137.899 137.557h394.377c76.117 0 137.865-61.577 137.865-137.557v-66.15h-670.14zM507.87 405.333c-95.949 0-173.773 77.653-173.773 173.397 0 95.812 77.79 173.431 173.773 173.431s173.773-77.619 173.773-173.431c0-95.744-77.892-173.397-173.773-173.397v0z" />
<glyph unicode="&#xe626;" glyph-name="untitled129" d="M688.299 498.927c-8.567-7.817-50.825-15.701-55.774-12.083-5.018 3.584-33.655-22.801-31.573-34.27 2.15-11.469-6.417-34.987-6.417-34.987l-42.223-49.289-40.858 35.021c0 0-173.261-159.369-176.094-174.353-2.867-14.985-11.435-23.552-11.435-23.552l-116.019-87.279-12.083 12.834c0 0 77.278 113.63 80.862 118.682 3.584 4.983 29.355 12.151 29.355 12.151l174.66 172.134-37.922 42.871c0 0 35.806 37.137 40.073 42.189 4.301 4.983 41.472 4.267 41.472 4.267s25.771 11.435 37.239 34.304c4.335 42.121 12.937 47.172 12.937 47.172l173.909 173.534 108.1-105.677c0.068-0.034-159.573-165.751-168.209-173.67v0zM509.338 540.467c-9.728-1.911-40.789-7.714-40.789-7.714l-50.483-58.061 39.834-37.82-28.228-27.136-67.925 65.911c-238.797-12.629-190.293 181.18-190.293 181.18l87.381-77.483c110.66-21.367 99.021 99.772 99.021 99.772l-78.643 84.309c209.715 39.697 186.436-181.248 186.436-181.248l43.691-41.711zM731.648 118.101l-244.634 243.268 22.323 23.211 36.932-37.786 65.024 59.085-2.935 19.354 10.65 0.956 200.943-206.37c0 0 32.051-108.51-88.303-101.717v0z" />
<glyph unicode="&#xe627;" glyph-name="untitled128" d="M859.989 355.328h-414.14c-11.776 0-21.367 9.626-21.367 21.402v297.882c0 11.776 9.591 21.333 21.367 21.333h414.174c11.776 0 21.299-9.557 21.299-21.333v-297.882c-0.034-11.776-9.523-21.402-21.333-21.402v0zM473.327 393.796h349.594c6.451 0 11.674 5.257 11.674 11.742s-5.188 11.708-11.674 11.708h-349.594c-6.417 0-11.708-5.222-11.708-11.708s5.291-11.742 11.708-11.742v0zM470.596 445.986h354.987c5.7 0 10.308 4.642 10.308 10.308s-4.608 10.274-10.308 10.274h-354.987c-5.7 0-10.308-4.642-10.308-10.274 0-5.7 4.642-10.308 10.308-10.308v0zM835.925 501.589c0 5.734-4.608 10.342-10.342 10.342h-352.256c-5.666 0-10.274-4.608-10.274-10.342 0-5.7 4.608-10.342 10.274-10.342h352.29c5.7 0.034 10.308 4.676 10.308 10.342v0zM827.665 653.38h-353.69c-6.793 0-12.39-5.564-12.39-12.425 0-6.758 5.564-12.322 12.39-12.322h353.69c6.827 0 12.356 5.564 12.356 12.322 0 6.895-5.53 12.425-12.356 12.425v0zM463.053 592.282c0-7.202 5.837-13.039 13.005-13.039h346.897c7.134 0 12.971 5.871 12.971 13.039s-5.837 13.073-12.971 13.073h-346.931c-7.168-0.034-12.971-5.905-12.971-13.073v0zM827.665 557.261h-353.69c-6.793 0-12.39-5.495-12.39-12.356 0-6.827 5.564-12.356 12.39-12.356h353.69c6.827 0 12.356 5.53 12.356 12.356s-5.53 12.356-12.356 12.356v0zM353.417 355.328h-94.925c-57.89-9.796-54.204-75.025-54.204-75.025-40.687-43.076-61.611 4.983-61.611 4.983v161.143l81.34 162.406c7.407 26.999 36.966 22.084 36.966 22.084h99.84c28.399 3.652 32.051-27.102 32.051-27.102s11.093-177.118 0-209.101c-11.127-31.949-39.458-39.39-39.458-39.39v0zM345.088 561.903c0 0-5.257 27.034-22.596 26.249-17.306-0.717-42.155-2.97-42.155-2.97l-94.822-142.746c0 0-6.076-12.015 4.54-20.275 10.547-8.294 15.804-1.536 15.804-1.536l23.415 27.785h115.917l-0.102 113.493zM346.624 418.475c-9.455 0.683-40.789-0.546-40.789-0.546l-3.14 0.546c0 0-6.895-16.862 12.595-20.617 19.456-3.755 30.686-0.649 30.686-0.649s10.035 20.719 0.649 21.265v0zM300.646 334.746c37.99 0 68.813-30.686 68.813-68.642 0-37.888-30.822-68.642-68.813-68.642-38.025 0-68.847 30.652-68.847 68.642 0.034 37.888 30.788 68.642 68.847 68.642v0zM699.665 285.321l-282.010-1.399-30.276 48.128 283.511 1.365 28.774-48.094zM791.791 334.746c37.99 0 68.779-30.686 68.779-68.642 0-37.888-30.754-68.642-68.779-68.642-37.956 0-68.779 30.652-68.779 68.642 0.034 37.888 30.822 68.642 68.779 68.642v0z" />
<glyph unicode="&#xe628;" glyph-name="untitled127" d="M403.081 473.566c0 62.601 48.708 113.323 108.817 113.323s108.817-50.722 108.817-113.323c0-62.566-48.708-113.289-108.817-113.289s-108.817 50.722-108.817 113.289v0zM565.18 473.975c0 30.891-23.996 55.91-53.692 55.91-29.628 0-53.658-25.020-53.658-55.91 0-30.857 24.064-55.876 53.658-55.876 29.662 0 53.692 24.986 53.692 55.876v0zM781.278 475.17c0-72.465-26.59-138.274-69.973-187.938-0.853-1.297-1.331-2.697-2.458-3.823l-172.1-187.699c-1.263-2.628-2.628-5.291-4.779-7.509-8.226-8.567-20.446-10.206-30.413-5.257-3.277 1.365-6.349 3.413-8.977 6.144-0.512 0.58-0.683 1.229-1.126 1.775l-176.572 192.58c-1.434 1.468-2.219 3.345-3.277 5.052-42.667 49.527-68.847 114.859-68.847 186.709 0 154.863 120.559 280.371 269.244 280.371 56.047 0 108.066-17.818 151.142-48.333l-0.034-0.034c6.076-4.949 10.24-12.254 10.547-20.821l0.307-2.628c0.546-15.497-11.127-28.433-26.044-28.979-8.977-0.307-16.691 4.301-21.811 11.162l-0.785-0.819c-32.768 20.855-71.168 33.143-112.401 33.143-119.296 0-215.996-100.659-215.996-224.87 0-57.754 21.129-110.148 55.501-149.982 0.171-0.137 0.341-0.171 0.546-0.307l11.708-12.834c4.028-3.959 7.987-7.919 12.288-11.571l90.010-99.669c-0.102 0.034-0.239 0.068-0.341 0.102l45.193-49.289 45.193 49.254c-0.307-0.068-0.546-0.137-0.819-0.205l90.010 97.724c0.683 0.58 1.297 1.263 1.98 1.843l22.562 24.644c1.604 1.638 3.584 2.594 5.461 3.755 32.666 39.322 52.668 90.385 52.668 146.5 0 36.079-8.329 70.042-22.869 100.25l1.434 1.57c-5.325 4.915-8.772 11.913-9.011 19.866l-0.375 2.594c-0.512 15.531 11.162 28.467 26.078 29.013 13.449 0.444 24.474-9.694 26.829-23.040 19.183-38.434 30.31-82.057 30.31-128.444v0z" />
<glyph unicode="&#xe629;" glyph-name="untitled126" d="M712.465 120.832h-400.623c-31.607 0-57.242 26.146-57.242 58.402v30.959h-0.034l-0.171 229.888h0.239v31.061c0 31.334 24.235 56.695 54.682 58.095h31.095v0.239h0.068v27.375h-0.137l-0.171 60.928c0 0.58 0.307 1.024 0.341 1.604 0.512 95.983 76.902 173.739 171.179 173.739 94.549 0 171.247-78.199 171.247-174.66 0-0.171-0.034-0.341-0.034-0.512h-2.014c0-0.068 0.034-0.171 0.034-0.205l0.307-1.161c0-16.111-12.834-29.184-28.672-29.184-15.77 0-28.604 13.073-28.604 29.184l-0.273 1.161c0 2.97 0.819 5.7 1.638 8.431-4.506 60.075-53.214 107.622-113.323 107.622-62.839 0-113.766-51.849-114.176-115.849h-0.41c0-0.068 0.034-0.171 0.034-0.205l0.205-88.474 315.017 0.137c30.583-0.034 55.467-24.815 56.866-55.74l0.171-295.014c-0.307-31.949-25.771-57.822-57.242-57.822v0zM712.465 179.234l-0.034 45.841-0.307-45.67-31.027-0.239 31.369 0.068zM712.226 471.074h-0.102l0.137-22.903-0.034 22.903zM655.258 470.391l25.634 0.649-310.784-0.102c-0.375-0.034-0.683-0.239-1.058-0.239-0.341 0-0.683 0.205-0.99 0.239h-18.295l19.285-0.512c-45.909 0-57.207-8.806-57.207-58.368l0.41 58.846h-0.649l0.171-291.908h56.73l-56.286 0.444-0.41 58.914c0-49.493 11.366-59.324 57.139-59.324l291.191 0.205c40.653 0.717 51.849 11.264 52.292 56.388l-0.171 182.647c-1.024 43.759-13.21 52.122-57.003 52.122v0z" />
<glyph unicode="&#xe62a;" glyph-name="untitled125" d="M930.441 476.877c0 183.876-179.61 332.971-401.135 332.971s-401.135-149.060-401.135-332.971c0-183.91 179.575-332.971 401.101-332.971 23.927 0 47.377 1.741 70.11 5.086 42.291 6.178 237.056-90.112 219.034-55.125-9.728 19.012-40.414 120.183-14.95 140.049 78.165 60.723 126.976 147.115 126.976 242.961zM755.883 257.673c-21.572-16.794-14.848-83.149-2.56-96.393 31.334-33.929-108.203 45.602-164.454 32.905-19.081-4.301-39.151-4.301-59.529-4.301-188.075 0-340.514 126.566-340.514 282.624 0 156.126 152.439 282.658 340.514 282.658 188.109 0 340.514-126.566 340.514-282.658-0.068-81.306-47.65-163.191-113.971-214.835zM323.755 594.569h411.341v-46.831h-411.341v46.831zM323.755 494.865h411.341v-46.831h-411.341v46.831zM323.755 395.093h411.341v-46.831h-411.341v46.831z" />
<glyph unicode="&#xe62b;" glyph-name="untitled124" d="M512 108.169c-185.31 0-335.565 152.166-335.565 339.866 0 187.631 150.255 339.797 335.565 339.797s335.531-152.166 335.531-339.797c0-187.699-150.221-339.866-335.531-339.866v0zM512 742.502c-160.597 0-290.816-131.857-290.816-294.468 0-162.679 130.219-294.537 290.816-294.537s290.85 131.857 290.85 294.537c0 162.611-130.253 294.468-290.85 294.468v0zM512 193.126c-138.991 0-251.665 114.142-251.665 254.908 0 140.732 112.674 254.839 251.665 254.839 138.957 0 251.665-114.108 251.665-254.839 0-140.766-112.708-254.908-251.665-254.908v0zM641.809 455.1l-67.55 11.674c-3.413 0.58-6.656 0.341-9.899-0.102-3.55 9.967-9.591 18.807-17.681 25.361 0.717 0.956 1.604 1.809 2.116 2.867l63.727 134.929c4.233 9.011 0.819 19.49-7.441 23.552l-5.052 2.492c-8.397 4.062-18.637 0.068-22.801-8.875l-63.761-134.997c-1.161-2.423-1.604-4.915-1.707-7.339-30.754-0.102-55.706-25.498-55.706-56.627 0-31.3 24.951-56.627 55.91-56.627 16.043 0 30.379 6.861 40.55 17.852 3.413-1.98 7.202-3.379 11.332-4.062l67.482-11.776c16.759-2.867 32.495 7.236 35.123 22.528l0.956 6.178c2.697 15.292-8.841 30.106-25.6 32.973v0zM636.553 413.15l-66.15 11.366c-4.608 0.785-7.714 5.154-6.963 9.796l0.956 5.598c0.785 4.642 5.12 7.782 9.66 6.929l66.185-11.366c4.608-0.717 7.612-5.188 6.861-9.796l-0.887-5.598c-0.751-4.608-5.086-7.68-9.66-6.929v0zM512 425.404c-12.356 0-22.357 10.069-22.357 22.63 0 12.493 10.001 22.596 22.357 22.596 12.322 0 22.357-10.103 22.357-22.596 0-12.561-10.035-22.63-22.357-22.63v0z" />
<glyph unicode="&#xe62c;" glyph-name="untitled123" d="M675.157 328.021c-41.779-38.912 18.466-164.932-157.867-150.426-198.178-32.495-132.062 119.398-179.302 159.164-59.938 50.517-98.167 126.703-98.167 211.968 0 152.201 121.89 275.661 272.247 275.661s272.145-123.46 272.145-275.661c-0.034-90.317-47.377-163.43-109.056-220.706v0zM512.034 235.964c0.205-0.068 0.41-0.137 0.649-0.137 3.789 30.857 26.283 204.8 51.746 233.404 0 0-30.549-0.171-41.916 10.547h-15.667c0 0-10.718-14.541-36.693-10.547 0 0 41.37-181.828 41.813-233.267h0.068zM506.846 766.054c-118.613 0-214.665-97.348-214.665-217.327 0-72.909 43.076-128.546 89.907-176.913 60.689-62.874-3.174-141.449 93.15-139.196-1.126 16.691-11.025 145.067-57.446 273.681 0 0-6.076 37.956 31.403 21.197 0 0 9.591-14.746 20.958-15.94 11.366-1.126 19.968-3.994 31.403 10.615 11.401 14.575 24.576 2.594 26.18 0 0 0 16.247-20.105 41.882-10.615 9.899 10.513 15.701 15.94 15.701 15.94s24.235 12.698 26.146-10.581c1.911-23.347-67.345-237.602-57.617-286.14-2.867-0.068-5.564-0.375-8.806-0.171h8.806c0 0.102 0 0.102 0 0.171 84.309 1.707 45.568 109.636 84.309 146.091 52.156 49.084 83.217 101.922 83.217 171.827 0.034 120.047-96.017 217.361-214.528 217.361v0zM430.763 161.724h157.321c4.233 0 7.714-3.516 7.714-7.782v-21.675c0-4.267-3.482-7.714-7.714-7.714h-157.321c-4.267 0-7.714 3.447-7.714 7.714v21.675c0 4.301 3.447 7.782 7.714 7.782v0zM462.165 108.749h94.515c4.233 0 7.748-3.447 7.748-7.782v-21.675c0-4.267-3.516-7.714-7.748-7.714h-94.515c-4.267 0-7.748 3.447-7.748 7.714v21.675c0.034 4.335 3.482 7.782 7.748 7.782v0z" />
<glyph unicode="&#xe62d;" glyph-name="untitled122" d="M805.649 387.243c-36.284 62.566-14.473 142.711 48.538 179.132l-67.755 117.146c-19.354-11.366-41.847-17.886-65.911-17.886-72.363 0-131.038 59.017-131.038 131.755h-135.509c0.205-22.46-5.427-45.261-17.476-66.014-36.147-62.566-116.599-83.831-179.575-47.548l-67.823-117.18c19.49-11.093 36.42-27.273 48.367-48.026 36.113-62.464 14.438-142.404-48.299-178.927l67.789-117.111c19.285 11.196 41.677 17.613 65.57 17.613 72.158 0 130.697-58.607 131.038-131.004h135.509c-0.034 22.255 5.598 44.749 17.442 65.331 36.113 62.464 116.326 83.797 179.405 47.65l67.686 117.214c-19.285 11.025-36.113 27.17-47.957 47.855v0zM521.626 313.924c-77.107 0-139.537 62.362-139.537 139.332s62.464 139.332 139.537 139.332c77.073 0 139.537-62.327 139.537-139.332 0-76.971-62.464-139.332-139.537-139.332v0z" />
<glyph unicode="&#xe62e;" glyph-name="untitled121" d="M782.507 224.973h-31.812v-0.068l-419.362-0.171c-16.555 0-29.969 11.844-29.969 26.487s13.414 26.59 29.969 26.59l390.519 0.171c14.985 0 26.112 1.126 34.714 3.516l-164.284 195.652c-3.447 5.53-3.925 11.571-2.799 17.271l-36.523-29.935c-10.786-11.025-29.73-12.22-42.257-2.697-3.14 2.423-5.53 5.257-7.339 8.397-1.741-3.174-4.13-5.973-7.339-8.397-12.527-9.523-31.437-8.363-42.257 2.697l-20.036 16.418c-0.546-1.229-0.614-2.56-1.331-3.755l-186.778-222.481c-0.785-1.331-2.185-2.219-3.243-3.379v-0.478c0-10.445-6.929-19.251-16.828-23.586-24.201 6.178-42.018 25.361-43.145 48.503l-0.239 373.931c0.068 28.399 25.532 51.439 57.344 52.668l542.14 0.239c33.178-0.068 59.87-23.791 59.87-53.077v-26.556l0.307-350.686c-3.311-26.556-28.399-47.275-59.324-47.275v0zM242.176 649.25v-0.068l14.507 0.068h-14.507zM269.517 646.383c-21.606-5.461-26.658-19.354-26.658-49.903l-0.649 23.484 0.137-281.020 137.489 163.703c3.243 5.222 8.329 8.67 14.029 10.991l-122.812 100.659c-9.045 9.284-9.011 22.391-1.536 32.085v0zM316.109 649.284c0.102-0.068 0.273-0.102 0.375-0.239l182.682-149.743c2.014-2.014 3.072-4.335 4.198-6.622 1.195 2.287 2.253 4.574 4.198 6.622l182.716 149.743c0.205 0.205 0.478 0.273 0.614 0.41l-374.784-0.171zM781.585 649.489l-47.138-0.034c0-0.034 0.068-0.034 0.068-0.034l47.070-0.273v0.341zM781.585 624.435l-0.717-27.955c0 38.161-7.782 50.415-45.943 52.565 9.762-9.796 10.615-24.542 0.683-34.714l-119.535-97.997c11.469 0.751 22.903-4.198 28.774-13.653l137.011-163.157-0.273 284.911z" />
<glyph unicode="&#xe62f;" glyph-name="untitled120" d="M652.083 93.969h-280.132c-38.707 0-70.076 33.382-70.076 72.055v535.757c0 38.741 31.369 70.144 70.076 70.144h219.819v-70.144h-243.166v-467.524h326.827v467.524h-40.175v70.144h16.794c38.673 0 70.042-31.403 70.042-70.144v-537.668c0-38.741-31.369-70.144-70.007-70.144v0zM465.306 725.197h93.389v23.347h-93.389v-23.347zM512 187.494c-12.902 0-23.347-10.479-23.347-23.415s10.445-23.381 23.347-23.381 23.347 10.445 23.347 23.381-10.445 23.415-23.347 23.415v0z" />
<glyph unicode="&#xe630;" glyph-name="untitled119" d="M457.011 174.046h107.793c-2.048 62.191-3.277 129.092-3.277 202.889 55.535 0 120.525-0.717 194.935-1.911v46.763h-179.2c5.734 16.179 15.667 38.605 29.355 67.209h149.845v47.991c-52.258-1.229-94.447-2.287-126.635-3.072 24.269 45.227 59.802 104.004 106.53 176.299 2.901 4.403 4.949 7.714 7.509 11.776h-104.926c-47.753-99.157-109.431-239.070-109.431-271.599h-3.755c0.068 33.417-76.868 173.090-131.618 271.599h-110.114c2.219-3.516 4.233-6.656 6.69-10.547 45.124-70.144 80.213-128.922 105.301-176.265-27.546 0-70.417 0.614-128.512 1.843v-47.991h150.426c12.117-25.702 21.265-48.162 27.546-67.209h-177.937v-46.763c80.282 1.161 144.145 1.911 191.829 1.911 0-63.454-0.819-131.413-2.355-202.923z" />
<glyph unicode="&#xe631;" glyph-name="untitled118" d="M477.969 204.561h66.662c-1.263 38.434-2.048 79.804-2.048 125.44 34.338 0 74.547-0.444 120.593-1.161v28.945h-110.865c3.55 10.001 9.66 23.859 18.193 41.574h92.672v29.662c-32.324-0.717-58.402-1.399-78.336-1.911 14.985 27.955 37.001 64.341 65.877 109.022 1.809 2.731 3.072 4.779 4.676 7.27h-64.922c-29.525-61.338-67.652-147.866-67.652-167.936h-2.321c0.034 20.617-47.514 107.008-81.374 167.936h-68.096c1.399-2.15 2.628-4.13 4.164-6.519 27.887-43.383 49.596-79.701 65.126-108.988-17.033 0-43.52 0.41-79.462 1.126v-29.662h93.047c7.475-15.906 13.141-29.798 17.033-41.574h-110.080v-28.945c49.63 0.717 89.122 1.161 118.647 1.161-0.068-39.185-0.58-81.203-1.536-125.44zM234.667 727.415v-586.411h554.667v586.411h-554.667zM706.15 690.654c15.36 0 27.785-12.322 27.785-27.511 0-15.223-12.425-27.546-27.785-27.546s-27.785 12.322-27.785 27.546c0 15.189 12.425 27.511 27.785 27.511zM576.717 690.654c15.326 0 27.785-12.322 27.785-27.511 0-15.223-12.459-27.546-27.785-27.546-15.292 0-27.75 12.322-27.75 27.546 0 15.189 12.459 27.511 27.75 27.511zM447.317 690.654c15.36 0 27.785-12.322 27.785-27.511 0-15.223-12.425-27.546-27.785-27.546s-27.785 12.322-27.785 27.546c0 15.189 12.425 27.511 27.785 27.511zM317.884 690.654c15.36 0 27.75-12.322 27.75-27.511 0-15.223-12.425-27.546-27.75-27.546s-27.75 12.322-27.75 27.546c0 15.189 12.425 27.511 27.75 27.511zM752.367 186.3h-480.734v376.183h480.7v-376.183z" />
<glyph unicode="&#xe632;" glyph-name="untitled117" d="M856.235 242.722h-668.501v378.129h668.399v-378.129h0.102zM814.319 580.233h-584.806v-295.492h584.875l-0.068 295.492zM751.684 316.314c0-3.789 0.887-7.236 2.116-10.513h-231.868c57.685 0 104.448 56.491 104.448 126.020 0 69.632-46.763 126.054-104.448 126.054h231.868c-1.195-3.345-2.116-6.724-2.116-10.479 0-17.442 13.995-31.539 31.334-31.539 3.652 0 7.168 0.956 10.479 2.185v-172.373c-3.379 1.229-6.793 2.116-10.479 2.116-17.306-0.034-31.334-14.131-31.334-31.471v0zM709.939 475.614c-17.306 0-31.334-18.842-31.334-41.984 0-23.279 14.029-42.086 31.334-42.086 17.34 0 31.334 18.807 31.334 42.086 0 23.142-13.995 41.984-31.334 41.984v0zM417.485 431.821c0-69.632 46.763-126.020 104.414-126.020h-231.834c1.195 3.277 2.116 6.69 2.116 10.445 0 17.374-13.995 31.539-31.3 31.539-3.721 0-7.202-0.853-10.479-2.116v172.305c3.277-1.161 6.793-2.15 10.479-2.15 17.306 0 31.3 14.165 31.3 31.539 0 3.721-0.887 7.168-2.116 10.479h231.868c-57.617 0-104.448-56.388-104.448-126.020v0zM333.926 475.614c-17.306 0-31.334-18.842-31.334-41.984 0-23.279 14.029-42.086 31.334-42.086s31.369 18.807 31.369 42.086c0 23.142-14.063 41.984-31.369 41.984v0zM589.346 482.577c10.82 17.306 16.282 26.59 16.282 27.819h-34.748c0-1.502-7.134-16.828-21.402-45.875-14.302-29.047-21.436-49.22-21.436-60.655h-1.126c0 11.264-8.021 31.539-24.098 60.996-16.009 29.525-24.030 44.681-24.030 45.534h-37.888c0-0.956 5.461-10.172 16.35-27.477 13.38-21.299 23.791-39.083 31.198-53.385-8.158 0-20.855 0.205-38.059 0.614v-14.609h44.544c3.55-7.714 6.315-14.575 8.158-20.275h-52.702v-14.131c23.757 0.375 42.701 0.546 56.832 0.546 0-22.46-0.307-46.66-0.922-72.567h32.529c-0.819 21.777-1.297 45.978-1.297 72.567 16.418 0 35.703-0.171 57.719-0.546v14.063h-53.146c1.741 4.915 4.676 11.708 8.704 20.343h44.407v14.575c-15.462-0.41-27.989-0.751-37.547-0.922 7.236 13.722 17.715 31.437 31.676 53.385v0z" />
<glyph unicode="&#xe633;" glyph-name="untitled116" d="M808.038 150.255c0-16.418-13.278-29.696-29.662-29.696s-29.662 13.278-29.662 29.696l-0.034 0.375h-0.853c-14.063 115.166-110.217 204.732-228.181 208.452-2.526-0.102-5.018-0.41-7.612-0.41s-5.018 0.273-7.612 0.375c-117.897-3.755-214.050-93.252-228.147-208.418h-0.751l0.034-0.375c0-16.418-13.312-29.696-29.696-29.696-16.35 0-29.662 13.278-29.662 29.696l-0.273 2.765c0 4.369 1.092 8.499 2.799 12.254 15.292 103.39 83.081 189.679 175.957 229.683-54.818 37.513-90.863 100.557-90.863 172.1 0 115.098 93.184 208.35 208.213 208.35 114.961 0 208.179-93.286 208.179-208.35 0-71.475-35.977-134.519-90.761-172.066 94.447-40.619 163.021-129.024 176.879-234.633 0.649-2.423 1.468-4.779 1.468-7.373l0.239-2.731zM660.651 567.023c0 82.193-66.56 148.821-148.685 148.821-82.091 0-148.685-66.628-148.685-148.821s66.594-148.821 148.685-148.821c82.125 0 148.685 66.628 148.685 148.821v0z" />
<glyph unicode="&#xe634;" glyph-name="untitled115" d="M821.35 580.506l-347.341-342.938c-8.738-8.602-22.972-8.602-31.642 0l-6.997 6.929h-0.102l-7.578 7.543-32.7 32.358c-0.239 0.102-0.239 0.478-0.58 0.614l-150.153 149.436c-8.738 8.602-8.738 22.528 0 31.198l47.343 46.797c8.67 8.636 22.938 8.636 31.539 0l135.168-134.417 284.092 280.474c8.602 8.602 22.869 8.602 31.539 0l47.377-46.831c8.772-8.602 8.772-22.596 0.034-31.164v0z" />
<glyph unicode="&#xe635;" glyph-name="untitled114" d="M836.267 283.068l1.024 327.817-592.111-0.341-0.034 37.615h629.146v-365.090h-38.025zM816.981 225.417l-38.059 0.068 1.058 327.782-592.111-0.41v37.649h629.077v-365.090h0.034zM760.969 187.017h-611.294v345.771h611.226v-345.805h0.068zM722.671 495.616h-534.801v-270.234h534.835v270.234h-0.034zM665.395 254.259c0-3.447 0.785-6.588 1.911-9.591h-212.036c52.736 0 95.505 51.644 95.505 115.268 0 63.659-42.769 115.268-95.505 115.268h212.036c-1.092-3.072-1.911-6.178-1.911-9.591 0-15.94 12.8-28.843 28.638-28.843 3.379 0 6.554 0.887 9.557 1.98v-157.594c-3.072 1.092-6.212 1.911-9.557 1.911-15.838 0-28.638-12.902-28.638-28.809v0zM627.2 399.974c-15.838 0-28.672-17.237-28.672-38.4 0-21.299 12.834-38.502 28.672-38.502s28.638 17.203 28.638 38.502c0 21.163-12.8 38.4-28.638 38.4v0zM359.765 359.936c0-63.659 42.769-115.268 95.471-115.268h-212.002c1.092 3.004 1.911 6.144 1.911 9.557 0 15.872-12.8 28.843-28.604 28.843-3.413 0-6.588-0.819-9.591-1.946v157.594c3.004-1.058 6.212-1.98 9.591-1.98 15.804 0 28.604 12.937 28.604 28.843 0 3.413-0.819 6.554-1.911 9.591h212.036c-52.702 0-95.505-51.575-95.505-115.234v0zM283.375 399.974c-15.838 0-28.672-17.237-28.672-38.4 0-21.299 12.834-38.502 28.672-38.502 15.804 0 28.672 17.203 28.672 38.502 0 21.163-12.868 38.4-28.672 38.4v0zM516.881 406.323c9.967 15.838 14.916 24.337 14.916 25.463h-31.744c0-1.399-6.554-15.394-19.593-41.95-13.107-26.59-19.627-45.056-19.627-55.467h-1.024c0 10.274-7.339 28.843-22.016 55.774-14.643 26.965-21.982 40.858-21.982 41.643h-34.645c0-0.887 4.983-9.284 14.95-25.122 12.22-19.456 21.743-35.738 28.535-48.811-7.475 0-19.081 0.171-34.816 0.546v-13.312h40.721c3.277-7.1 5.769-13.346 7.475-18.569h-48.196v-12.937c21.709 0.341 39.049 0.512 51.951 0.512 0-20.582-0.273-42.701-0.853-66.355h29.73c-0.785 19.9-1.195 42.018-1.195 66.355 15.053 0 32.666-0.171 52.804-0.512v12.902h-48.572c1.57 4.471 4.267 10.684 7.953 18.569h40.585v13.312c-14.131-0.375-25.6-0.683-34.304-0.819 6.622 12.527 16.247 28.74 28.945 48.777v0z" />
<glyph unicode="&#xe636;" glyph-name="untitled113" d="M778.24 318.293c13.653 0 17.067 17.067 17.067 17.067s47.787 238.933 44.373 262.827c0 23.893-27.307 23.893-27.307 23.893h-546.133l-6.827 47.787c0 0 40.96 10.24 78.507 27.307 3.413 0 6.827 6.827 10.24 6.827 6.827 17.067-6.827 27.307-10.24 27.307-6.827 3.413-20.48 0-20.48 0l-81.92-27.307c0 0-61.44 27.307-85.333 30.72-27.307 0-27.307-34.133-17.067-37.547 6.827-6.827 81.92-34.133 81.92-34.133s54.613-317.44 68.267-392.533c6.827-37.547 27.307-37.547 34.133-34.133 17.067 0 58.027 0 81.92 0-17.067-37.547-3.413-51.2-3.413-51.2s27.307 6.827 34.133 37.547h204.8c0-6.827-3.413-30.72 3.413-40.96 0 0 20.48 3.413 37.547 40.96h85.333c0 0 6.827 0 13.653 10.24s13.653 23.893 17.067 51.2c0 0-85.333-3.413-139.947 34.133-98.987 10.24-194.56-58.027-221.867-88.747 0 3.413 0 3.413 0 6.827 119.467 116.053 221.867 88.747 221.867 88.747s0 3.413 3.413 13.653c58.027-27.307 105.813-20.48 122.88-20.48zM699.733 430.933c10.24 0 17.067-6.827 17.067-17.067s-6.827-17.067-17.067-17.067c-10.24 0-17.067 6.827-17.067 17.067-3.413 10.24 6.827 17.067 17.067 17.067zM709.973 413.867c0-5.655-4.585-10.24-10.24-10.24s-10.24 4.585-10.24 10.24c0 5.655 4.585 10.24 10.24 10.24s10.24-4.585 10.24-10.24z" />
<glyph unicode="&#xe637;" glyph-name="untitled112" d="M763.699 530.466h-110.592c-36.625 0-66.355 30.242-66.355 67.482v112.367c0 37.274 29.696 67.482 66.355 67.482h110.592c36.693 0 66.423-30.174 66.423-67.482v-112.401c-0.068-37.239-29.73-67.447-66.423-67.447v0zM708.062 689.254c-18.944 0-34.167-15.599-34.167-34.782 0-19.217 15.223-34.816 34.167-34.816s34.27 15.599 34.27 34.816c0 19.183-15.326 34.782-34.27 34.782v0zM785.818 508.655c0-24.815-19.763-45.636-44.237-45.636h-222.583c24.849 0 23.859 28.16 23.859 28.16l0.99 35.021c0 23.962-25.054 26.965-25.054 26.965l-85.538 0.307c-24.883 0-24.064-21.197-24.064-21.197l0.102-45.568c0-21.129 22.596-23.654 22.596-23.654h-199.134c-24.405 0-44.237 20.105-44.237 44.988v22.426l89.293-0.683c0 0 24.405 21.094 24.166 45.602h261.325c0-70.246 67.721-67.482 67.721-67.482l154.795 0.751zM254.908 552.926h-66.423c-12.186 0-22.118 10.069-22.118 22.494s9.933 22.494 22.118 22.494h66.389c12.151 0 22.084-10.069 22.084-22.494 0.034-12.425-9.899-22.494-22.050-22.494v0zM431.855 508.006c0 12.356 9.933 22.426 22.084 22.426h44.271c12.22 0 22.153-10.069 22.153-22.426 0-12.425-9.899-21.845-22.153-21.845h-44.271c-12.151 0-22.084 9.455-22.084 21.845v0zM606.788 318.293c0-67.925-54.238-123.017-121.003-123.017-66.833 0-121.003 55.057-121.003 123.017 0 67.823 54.17 122.266 121.003 122.266 66.765 0 121.003-54.443 121.003-122.266v0zM486.502 422.229c-55.364 0-100.284-45.602-100.284-101.854s44.919-101.854 100.284-101.854c55.364 0 100.25 45.534 100.25 101.854-0.034 56.252-44.885 101.854-100.25 101.854v0zM486.502 261.325c-30.583 0-55.296 25.19-55.296 56.218 0 30.993 24.713 56.218 55.296 56.218 30.515 0 55.296-25.225 55.296-56.218 0.068-30.993-24.781-56.218-55.296-56.218v0zM210.603 440.559h199.134c0 0-67.789-18.33-67.789-113.835 0-95.573 61.542-155.989 134.827-155.989 73.318 0 155.648 33.041 155.648 155.989 0 0 2.697 77.244-66.389 113.835h197.666c12.254 0 22.118-10.069 22.118-22.494v-247.364c0-12.39-9.865-22.494-22.118-22.494h-553.097c-12.22 0-22.153 10.103-22.153 22.494v247.364c0.034 12.39 9.967 22.494 22.153 22.494v0z" />
<glyph unicode="&#xe638;" glyph-name="untitled111" d="M682.394 183.74v363.349h82.261v-363.383l-82.261 0.034zM682.394 712.226h82.261v-148.002h-82.261v148.002zM236.1 547.089h429.739v-363.383h-429.739v363.383zM451.686 215.791c82.398 0 149.129 66.731 149.129 148.958 0 82.398-66.731 149.129-149.129 149.129-82.364 0-149.129-66.731-149.129-149.129 0-82.227 66.765-148.958 149.129-148.958v0zM451.686 498.347c73.83 0 133.666-59.767 133.666-133.598 0-73.66-59.836-133.461-133.666-133.461-73.796 0-133.632 59.802-133.632 133.461 0 73.83 59.836 133.598 133.632 133.598v0zM451.686 262.281c51.234 0 93.423 37.615 101.069 86.63h-52.224v33.041h52.156c-8.26 48.538-50.074 85.538-101.001 85.538-56.695 0-102.707-45.909-102.707-102.639 0.034-56.661 46.046-102.571 102.707-102.571v0zM236.1 712.226h429.739v-148.002h-429.739v148.002zM393.148 612.489c13.687 0 24.815 11.093 24.815 24.849 0 13.619-11.059 24.815-24.815 24.815-13.653 0-24.815-11.162-24.815-24.815 0-13.756 11.162-24.849 24.815-24.849v0zM293.956 612.489c13.756 0 24.849 11.093 24.849 24.849 0 13.619-11.127 24.815-24.849 24.815s-24.815-11.162-24.815-24.815c0-13.756 11.093-24.849 24.815-24.849v0z" />
<glyph unicode="&#xe639;" glyph-name="untitled110" d="M854.323 212.002h-685.295c-45.739 0-44.476 49.152-44.476 49.152l0.683 49.254h72.124v344.474c0 49.186 46.046 49.766 46.046 49.766l539.955-0.614c42.394 0 44.715-47.104 44.715-47.104v-345.975h71.441v-49.766c0-0.034-1.502-49.186-45.193-49.186v0zM442.948 235.827h162.27c13.346 0 18.091 4.881 18.091 12.834 0 7.919-4.028 14.37-17.374 14.37h-162.987c-13.449 0-16.725-6.417-16.725-14.37s3.277-12.834 16.725-12.834v0zM779.537 654.882h-534.391v-319.898h534.391v319.898zM863.164 247.33h-52.463c-7.202 0-13.039-6.793-13.039-14.063 0-7.305 5.837-13.278 13.039-13.278h52.463c7.236 0 13.073 6.007 13.073 13.278s-5.905 14.063-13.073 14.063v0z" />
<glyph unicode="&#xe63a;" glyph-name="untitled109" d="M618.018 566.886c-115.302 0-208.759-93.15-208.759-208.111 0-114.893 93.457-208.111 208.759-208.111 115.337 0 208.828 93.184 208.828 208.111 0.034 114.961-93.491 208.111-208.828 208.111zM619.383 286.891c-38.195 0-69.257 30.891-69.257 69.052s31.027 69.018 69.257 69.018c38.332 0 69.325-30.857 69.325-69.018-0.034-38.127-30.959-69.052-69.325-69.052zM404.855 443.29h-90.726v-91.75h73.728c0.99-67.345 29.457-127.932 74.923-171.213h-112.401c-73.967 0-134.007-14.37-134.007 59.597v371.575c0 73.865 60.006 133.769 134.007 133.769h230.81c74.035 0 96.734-15.292 96.734-89.225v-71.407c-15.599 2.97-31.778 4.54-48.401 4.54-101.956 0.034-189.030-58.743-224.666-145.886v0z" />
<glyph unicode="&#xe63b;" glyph-name="untitled108" d="M63.625 641.263v-87.654l160.256-60.416v-294.059c220.365-34.099 502.067-34.85 717.551 0 0 164.045 0 328.090 0 492.1-293.513 73.216-629.009 55.262-877.807-49.971v0 0zM461.278 465.476l78.029-27.989v-17.681h-78.029v45.67zM660.685 359.39h54.17v-39.834h-54.17v39.834zM465.203 359.39h54.101v-39.834h-54.101v39.834zM463.633 498.654c3.311 13.551 9.182 26.59 18.398 39.083 11.366 15.36 27.614 29.491 50.449 42.052l3.345 1.809c36.557 0 73.25 0 109.909 0l3.243-1.809c22.835-12.595 39.151-26.692 50.517-42.052 9.216-12.356 14.95-25.395 18.33-38.912 14.473-3.072 26.624-16.418 26.624-31.949v-57.412c0-17.818-14.575-32.427-32.222-32.427h-241.732c-17.715 0-32.188 14.541-32.188 32.427v57.412c-0.205 15.497 10.82 28.57 25.327 31.778v0 0zM513.911 510.771l32.87 52.77h37.786l-33.007-52.77h-37.649zM719.838 465.476v-45.602h-77.961v17.647l77.961 27.955zM336.35 617.199h503.671v-328.602h-503.671v328.602z" />
<glyph unicode="&#xe63c;" glyph-name="untitled107" d="M557.329 613.103c29.901 9.079 86.528 27.887 89.6 114.005 44.851-15.258 75.264-64.239 75.264-114.517 0 0-101.001 0.205-164.864 0.512v0zM486.605 613.547c-23.518 0-216.713-0.512-216.713-0.512-3.55 10.854-5.461 21.675-5.461 33.69 0 61.030 49.527 105.335 110.524 105.335s117.623-44.339 117.623-105.335c-0.034-12.595-2.116-21.948-5.973-33.178v0zM510.43 625.869c13.483 50.586-0.956 135.885-97.041 146.227 15.838 39.356 54.374 54.955 99.396 54.955 59.187 0 107.076-35.772 107.076-94.925 0-59.085-50.313-106.257-109.431-106.257v0zM501.862 68.949l-264.363 524.868h526.336l-261.973-524.868z" />
<glyph unicode="&#xe63d;" glyph-name="untitled106" d="M799.027 96.905c-9.079-9.011-42.735-22.869-49.698-30.652-15.326-16.964-2.935-26.18-32.666-26.726l-190.566-4.096c-35.908-0.751-83.388 2.731-115.541 2.048-9.66-0.171-21.504-7.714-28.501-7.27-13.414 0.785-14.438 6.076-15.872 21.299-0.478 5.018-4.13 11.162-4.13 18.637 0 10.377 27.511 15.872 19.422 19.149-28.228 11.503-83.081 37.888-99.055 65.741-25.395 43.861 10.718 73.455 27.989 78.165 11.878 3.311 22.426-6.246 35.601-8.294 33.69-5.188 67.379-19.797 83.968-35.123 6.212-5.769 19.081-8.26 23.279-4.471 5.53 4.983-0.785 17.135 3.447 30.549 5.495 17.203 14.575 33.792 23.279 42.223 41.813 40.55-34.987 154.146-68.233 176.367-29.798 19.866-96.597 72.602-124.45 114.551-4.574 6.861-16.657 11.776-18.295 17.92-4.71 7.68-5.222-3.447-11.742 6.451-8.090 12.425-13.995 33.041-27.034 53.623-15.872 25.088-28.262 62.43-41.506 98.065-4.574 0-4.71 10.581-4.71 16.282 0 11.298 3.447 14.507 6.144 22.767 7.031 21.641 20.617 42.53 35.533 57.481 3.038 3.038 15.394 28.331 15.531 15.531 1.399 0 8.226 2.765 10.991 2.765 3.379 1.502 28.297 8.021 38.434 3.516 8.363-3.721 39.39-7.066 49.664-7.066 6.929 0 16.452-10.684 28.638-17.135 31.198-16.452 95.915-52.599 110.763-67.379 45.602-45.67 71.851-74.513 100.762-111.309 7.066-8.943 12.015-19.149 19.524-28.058 7.578-8.909 17.818-16.35 24.883-30.583 2.253-4.54 0.819-13.278 8.124-28.57 3.618-7.68 14.029-18.159 18.5-27.511 10.547-22.016 23.484-62.635 29.116-109.158 4.676-39.049-13.585-92.023-15.223-136.875-0.683-20.343 15.053-37.444 15.053-53.623-0.068-5.495 0.068-10.547 0.239-15.155 0.922-20.070 4.233-31.915 12.766-30.413 47.241 8.465 154.556 61.44 166.707-2.935 10.684-56.73-26.214-45.67-61.133-80.725v0zM532.309 609.553c-3.959 3.925-5.769 11.571-9.694 16.725-27.273 36.011-53.76 77.346-87.108 101.717-19.354 14.165-39.049 58.163-69.018 58.163-7.885 0-30.822 26.556-37.035 20.343-2.731-2.833-31.232-12.288-52.463-16.725-12.356-2.526-22.869-6.076-22.869 1.434 0 13.21 32.154 12.698 32.154 20.582 0 2.492-0.819 7.68-2.321 8.533-6.212 3.413-23.313-6.758-37.581-17.033-6.042-4.437-10.82-6.042-13.961-8.397-8.704-6.417-10.172-13.449-4.506-10.274 3.447 1.946 14.473 15.77 19.9 15.77 5.257 0-2.048-14.916-5.495-18.432-1.809-1.843-3.789-10.991-6.588-16.145-2.287-4.301-6.212-12.629-10.445-17.374-3.755-4.267-7.919-5.052-9.421-8.567-2.628-6.349 3.106-10.513 4.301-12.868 25.020-50.654 50.176-96.393 83.9-133.257 8.465-9.148 22.050-14.302 31.573-22.289 24.439-20.412 49.391-46.319 84.685-57.958 19.217-6.349 36.591-10.377 39.424-8.124 1.741 1.434 6.417 7.202 0.751 10.513-5.632 3.311-21.402 4.233-33.314 4.233-59.46 0-96.666 78.199-76.8 124.86 8.772 20.446 31.198 36.386 62.874 36.386 57.31 0 80.555-36.147 92.843-75.025 1.502-4.847-0.546-19.831 1.57-27.273 3.925-14.302 14.131-19.149 28.57-19.149 3.004 0 7.509-4.437 8.67-1.946 5.154 10.752-6.861 45.807-12.595 51.575v0zM642.901 403.866l-97.382-38.571c-17.442-7.305-37.717-14.609-52.326-23.996l-10.24-8.465c-4.13 10.411-7.851 20.89-14.78 30.857-5.461 7.817-14.609 14.916-15.292 23.962-0.068 0.649-0.068 1.229-0.068 1.877-2.56 4.13-4.506 8.977-5.803 11.127-13.756 20.992-4.574 63.181 5.495 83.763 6.861 13.756 16.009 36.215 12.356 4.13-2.355-19.695-0.205-40.38 5.359-58.539 32.222 20.992 98.441 0.41 105.574 2.492 5.257 1.604 10.581 1.843 14.029 5.734 12.663 14.029 15.565 41.37 24.986 57.924-36.386 28.672-71.748 38.537-71.748 61.645 0 0.819 2.253 2.765 3.14 0.819 6.007-17.818 36.591-23.313 52.156-30.174l35.226-15.565c1.263-0.307 3.174-1.57 5.257-3.345 10.752-1.638 23.177-10.684 29.15-33.007 4.779-17.715 9.25-38.059 12.527-59.631-11.878-5.257-26.214-8.226-37.615-13.039v0zM643.925 397.995l-97.28-38.605c-17.408-7.202-37.82-14.507-52.326-23.996l-9.455-7.782c-0.614 1.707-1.263 3.447-1.911 5.257l10.24 8.465c14.575 9.387 34.884 16.657 52.326 23.996l97.382 38.571c11.401 4.813 25.737 7.782 37.683 13.073-0.683 4.198-1.365 8.226-2.014 12.322 0.512-2.935 0.99-5.769 1.536-8.704 0.239-1.297 0.375-2.628 0.58-3.925 0.205-1.911 0.375-3.755 0.58-5.769-11.981-5.154-26.010-8.124-37.342-12.902v0zM544.256 549.513c9.66-21.402 57.412-36.147 70.554-53.35-2.15-3.789-0.717-2.287-2.423-6.895-8.943 23.347-67.823 40.482-68.13 60.245v0zM481.69 336.111c-3.516 8.772-7.817 17.579-12.493 26.078 5.632-8.465 9.079-17.271 12.493-26.078v0zM464.862 488.55c0.546 4.54 0.785 7.953 0.853 10.479 1.195-0.512 1.502-5.018 0.171-16.35-1.57-12.971-1.126-26.522 0.922-39.39-2.935 14.643-3.755 30.276-1.946 45.261v0zM441.754 413.423c1.126-4.71 2.833-9.079 5.257-12.732 1.331-2.15 3.243-6.997 5.803-11.093 0-0.341 0-0.614 0-0.751-2.15 3.14-4.369 6.178-6.588 9.25-2.219 4.437-3.652 9.728-4.471 15.326v0zM637.030 524.595c-26.317 53.589-44.442 114.62-96.256 153.395-12.39 9.079-35.396 43.759-47.753 43.759-6.588 0-23.074 23.893-29.696 30.481-24.781 24.849-64.785 41.609-91.443 65.502 32.154-17.135 93.389-51.507 107.793-65.843 45.602-45.67 71.851-74.513 100.762-111.309 7.066-8.943 12.015-19.149 19.524-28.058 7.578-8.909 17.818-16.35 24.883-30.583 2.253-4.54 0.819-13.278 8.124-28.57 3.618-7.68 14.029-18.159 18.5-27.511 4.096-8.636 8.636-20.173 12.937-33.826-7.782 10.854-20.787 19.354-27.375 32.563v0zM452.813 389.564c0-0.307 0-0.649 0-0.785-14.541 21.197-30.174 38.366-41.097 45.636-29.798 19.866-96.597 72.602-124.45 114.551-4.574 6.861-16.657 11.776-18.295 17.92-4.71 7.68-5.257-3.447-11.776 6.451-8.090 12.425-13.995 33.041-27.034 53.623-15.872 25.088-28.228 62.464-41.506 98.099-4.574 0-4.71 10.581-4.71 16.282 0 11.298 3.447 14.507 6.144 22.767 6.622 20.343 19.012 40.004 32.87 54.682-7.475-26.829-53.999-71.066-27.17-97.929 27.989-28.023 37.888-110.455 69.154-143.497l60.143-63.488c16.009-16.964 60.894-71.714 90.487-71.714 19.797 0 23.927-33.007 23.927 9.079 0 21.436-15.667 70.042 6.588 24.713 0.546-1.126 1.024-2.287 1.502-3.447-7.612-22.187-12.015-54.306-0.614-71.817 1.365-2.15 3.277-6.997 5.837-11.127v0zM500.156 585.694c0 4.574-9.182 21.504-13.278 21.504 20.139 7.305-10.069 55.433-10.069 22.050-15.087 17.408-50.244 16.93-72.226 14.165-18.739-2.253-47.104-13.722-47.104-35.294-1.809 1.399-6.861 6.042-6.861 7.782 0-2.287 3.652-12.8 5.939-12.8 4.096-10.513 16.452-21.060 16.452-31.573 8.226-10.069 16.93-24.303 32.461-32.563l28.297-15.087c6.861-3.209 16.93 0.922 23.347 0.922 5.086-5.018 6.656-9.011 5.905-12.049-0.273 1.161-1.024 2.253-2.56 3.14-5.632 3.311-21.436 4.233-33.314 4.233-59.494 0-96.666 78.199-76.8 124.86 8.738 20.446 31.198 36.386 62.839 36.386 57.344 0 80.589-36.147 92.877-75.025 1.502-4.847-0.546-19.831 1.536-27.273 0.683-2.56 1.57-4.779 2.628-6.758-5.427 3.038-10.069 8.158-10.069 13.38v0zM448.887 505.617c-6.281-0.478-13.449 0.341-19.149 2.219-23.006 7.646-46.217 19.9-63.522 37.308 15.735-12.868 33.041-24.849 54.033-31.71 10.957-3.55 21.299-6.417 28.638-7.817v0zM428.305 607.915c-4.71-2.423-8.226-7.953-9.148-2.082-1.707 13.449 7.578 20.309 23.211 19.149 0 6.451-22.016 0-24.064-1.502-1.399-0.853-11.742-17.988-13.175-14.985-2.116 4.13 2.15 11.571 5.12 14.541 6.724 6.758 11.878 12.22 21.606 14.916-1.502-0.614-25.327-16.452-6.212-8.806 8.806 3.516 24.132 0.58 16.145-7.373-0.034-5.359-9.318-11.844-13.483-13.858v0zM429.193 585.557c17.033 0-1.434-10.001-3.209-11.776-9.694-9.762-15.633 1.126-21.47 13.21-3.004 6.144-5.598-5.291-7.953-9.967-1.195-2.355-14.643-7.1-15.804-7.1 0 7.1-2.97-0.307 0.819 11.162 2.97 8.806 7.066 10.854 17.34 10.854-8.567 9.148-19.217-4.403-26.726-4.983 5.018 3.243 21.47 20.343 29.082 12.663 5.052-4.983 5.052-12.902 8.567-20.070 7.885-16.077 15.531 6.007 19.354 6.007v0zM432.708 563.405c6.895 4.949 11.844 6.451 22.699 6.451-2.014-2.731 0.785-10.513-1.502-14.848-2.594-4.949-11.093-10.377-16.043-12.868-4.437-0.717-7.168 5.495-7.373 5.495-4.983-3.277-4.437 3.379-4.437 7.373-0.034 3.721 6.656 7.714 6.656 8.397v0zM628.634 145.271c-19.422-14.814-15.326-29.082-16.282-29.525-23.211-6.588-39.219 2.97-60.996 7.953-25.429 5.939-47.923 41.609-71.202 48.811-2.731 0.819-22.869 5.803-33.417 10.991 2.765 0 5.12 0.614 6.485 1.877 3.277 2.833 2.389 8.192 2.014 14.814 76.937-1.024 153.19-17.34 225.724 5.973 0.956-13.141 3.174-21.914 7.714-24.644-19.251-10.479-43.998-23.996-60.041-36.25v0zM455.27 200.090c0 0.58-0.068 1.126-0.068 1.638 76.937-1.126 153.122-16.555 225.69 5.12 0.068-0.307 0.068-0.58 0.068-0.785-72.499-23.313-148.753-6.997-225.69-5.973v0zM613.922 117.419c-0.512-0.171-0.922-0.273-1.434-0.41 0.068 3.55-0.034 13.107 10.957 23.757-11.708-12.322-8.704-22.938-9.523-23.347v0zM603.341 110.421c-21.572-10.581-51.166-26.078-75.264-24.849l-110.455 6.246c-11.878 0.717-23.927-0.341-35.567-2.833-0.171 0.068-0.375 0.239-0.614 0.273-28.228 11.503-83.081 37.888-99.055 65.707-12.083 20.89-10.172 38.502-3.14 51.746 0.853-2.935 1.399-6.793 1.399-11.708 0-33.963 18.534-43.691 48.742-58.675 11.844-5.871 34.714-25.225 81.374-34.543 24.371-4.847 53.453-4.608 82.773-5.052 20.070-0.341 42.018-1.877 55.774-2.014 18.364-0.307 54.75 19.012 59.802 20.207-1.229-1.775-3.14-3.277-5.769-4.506v0zM749.329 66.219c-15.326-16.964-2.935-26.18-32.666-26.726l-190.566-4.096c-8.158-0.239-16.964-0.137-26.010 0 12.117 3.618 27.921 6.793 32.29 7.578l140.117 17.886c20.275 2.492 43.213 12.971 63.454 12.971 11.196 0 27.273 3.925 42.564 9.967-12.015-6.417-25.156-13.039-29.184-17.579v0zM781.141 197.769c-13.858-3.072-17.715-24.678-28.57-24.678-22.357 0-50.108-10.103-63.966-24.030-16.964-16.998-56.286-27.785-77.21-34.748 0 0.375 0 0.717-0.034 1.058 0.41 0.171 0.717 0.239 1.024 0.341 0.887 0.512-3.209 14.746 16.247 29.525 16.077 12.254 40.823 25.771 60.041 36.113 1.365-0.853 2.97-1.126 4.813-0.785 31.164 5.564 88.405 30.549 127.283 28.365l-39.629-11.162z" />
<glyph unicode="&#xe63e;" glyph-name="untitled105" d="M344.781 177.766c0 0 80.145-23.484 178.551-23.484 0 0 97.417-2.628 180.326 23.484l-0.683 348.262 91.648-43.315c0 0 11.537-10.479 21.060 0.751 5.359 6.622 46.729 65.229 64.614 95.744 8.397 14.609-0.717 15.735-0.717 15.735l-152.474 92.945c0 0-18.295 23.211-68.915 23.211h-43.52c0 0 1.399-93.594-91.375-93.594 0 0-91.307 5.803-90.010 93.594h-43.52c0 0-51.985-4.369-70.315-23.211l-152.713-92.228c0 0-6.349-7.987 0.717-21.743l64.819-91.921c0 0 10.547-9.387 22.528 1.502l90.146 42.53-0.171-348.262z" />
<glyph unicode="&#xe63f;" glyph-name="untitled104" d="M354.167 282.146c-85.914 0-146.534-43.11-146.534-43.11v443.051c0 0 60.621 44.612 146.534 44.612 85.982 0 146.534-50.244 146.534-50.244v-437.487c0.034 0-60.553 43.179-146.534 43.179v0zM669.833 282.146c-85.982 0-146.534-43.11-146.534-43.11v443.051c0 0 60.553 44.612 146.534 44.612s146.569-50.244 146.569-50.244v-437.487c0 0-60.587 43.179-146.569 43.179v0zM590.916 191.59l1.468-22.289h-159.3v22.289h-270.541v445.918h22.596v-423.663h270.541v-22.255h112.742v22.255h270.541v423.663h22.596v-445.85l-270.643-0.068z" />
<glyph unicode="&#xe640;" glyph-name="untitled103" d="M762.061 168.311c0 0-60.689-81.442-161.587-0.99-84.343-77.483-165.137 0.922-165.137 0.922-93.662-87.142-155.75 2.526-155.75 2.526-29.833-39.458-76.937-40.482-76.937-40.482v53.282c16.691-16.418 77.107 42.359 77.107 42.359 86.118-109.158 154.726 1.741 154.726 1.741s99.669-74.138 164.284-1.399c73.079-76.834 164.727 1.399 164.727 1.399 37.581-49.801 74.752-38.4 74.752-38.4l0.99-40.346c-25.259-48.094-77.175 19.388-77.175 19.388v0zM598.699 250.402c-21.47-25.19-67.721-31.881-67.721-31.881l-0.205 387.516c104.516-4.096 292.215-62.771 292.215-134.588 0-47.138-69.291-170.633-154.078-254.703-23.006 0.922-47.548 9.796-70.212 33.655v0zM724.651 682.325c0 48.367-38.98 46.012-38.98 46.012h-141.926v-97.553l-39.902-0.205-0.375 96.324h-141.21c0 0-44.476-7.407-43.52-47.411 0-51.917 0.751-83.763 0.751-83.763l-39.663-20.207c0 0-1.058 79.94 0 127.010 1.024 47.002 75.332 63.283 75.332 63.283h329.83c0 0 73.66-6.895 77.38-61.508 0-47.070 0-133.257 0-133.257l-37.683 21.709c-0.034 0-0.034 55.706-0.034 89.566v0zM512.137 219.375c-42.837 5.53-77.756 32.324-77.756 32.324s-22.972-36.898-58.914-47.002c-93.321 84.412-173.773 218.897-173.227 268.698 0.887 73.079 206.199 130.287 310.17 132.745 0.034-64.649-0.273-388.164-0.273-386.765v0z" />
<glyph unicode="&#xe641;" glyph-name="untitled102" d="M137.045 541.491h211.797l141.926-442.197-353.724 442.197zM512.649 98.441l-125.303 443.051h233.062l-107.759-443.051zM531.695 99.294l130.287 442.197h210.227l-340.514-442.197zM668.843 570.436l102.059 175.855 102.161-175.855h-204.22zM636.723 574.498l-102.127 181.897h204.254l-102.127-181.897zM401.067 570.436l102.161 175.855 102.093-175.855h-204.254zM371.234 574.498l-102.161 181.897h204.186l-102.025-181.897zM134.827 570.436l102.127 175.855 102.161-175.855h-204.288z" />
<glyph unicode="&#xe642;" glyph-name="untitled101" d="M225.109 624.333c0 0 14.131-0.341 19.729 22.357 6.758 27.102 37.41 109.534 37.41 109.534s8.499 35.567 52.907 35.567c44.442 0 369.835 0 369.835 0s41.95 2.492 58.573-34.816c19.866-44.817 25.771-102.502 25.771-102.502s5.598-32.563 42.462-34.543c43.383-2.321 94.447-36.796 23.108-131.686-71.236-94.857-136.533-158.037-329.182-166.059v-100.454c0 0 115.78 33.417 129.126 34.167 13.449 0.751 8.499-10.445 3.55-14.643-4.915-4.164-10.65-2.082-14.165-2.799-3.482-0.683-87.313-37.649-87.313-37.649l134.656-73.284c0 0 3.516-11.878 0.717-11.878-2.901 0-12.766-6.281-16.998 0-4.164 6.246-161.553 67.652-161.553 67.652l-151.791-56.525c0 0-4.164-9.079-12.663-9.728-8.499-0.717-16.247 0.649-9.899 15.258 6.349 14.711 130.526 64.887 130.526 64.887l-96.7 43.964c0 0-9.148-6.246-13.38 1.365-4.267 7.714 2.799 16.828 2.799 16.828l135.509-38.468-0.717 101.888c0 0-208.145 12.254-282.965 135.066-74.854 122.778-73.421 165.376-26.146 165.683 27.273 0.375 36.796 0.819 36.796 0.819v0z" />
<glyph unicode="&#xe643;" glyph-name="untitled100" d="M708.267 277.436c-124.655-136.533-318.327-169.301-412.058-123.563 21.811 44.237 59.904 117.453 108.51 194.389 21.026-12.527 57.207-30.14 57.207-30.14l18.159 23.893c0 0-35.43 23.279-55.706 36.318 11.537 17.51 23.586 34.987 36.011 52.19 21.197-12.459 55.91-29.355 55.91-29.355l18.125 23.996c0 0-31.607 20.651-52.19 33.963 6.212 8.124 12.151 16.384 18.534 24.201 9.25 11.366 18.978 21.675 28.638 32.222 0.205-0.137 0.478-0.273 0.683-0.375 19.422-12.39 62.703-33.417 62.703-33.417l18.091 23.893c0 0-35.908 23.62-56.183 36.591 10.684 10.684 21.265 21.299 32.017 31.061 20.855-12.493 57.924-30.481 57.924-30.481l18.091 23.893c0 0-27.682 18.159-48.162 31.403 65.502 55.33 128.512 94.174 167.287 115.849 65.877-78.063 58.846-291.43-73.591-436.531v0zM541.935 640.102l-18.159-23.893c0 0 22.494-15.906 41.301-28.774-10.889-10.035-21.675-20.855-32.461-31.881-19.422 11.162-42.496 23.484-42.496 23.484l-18.125-23.893c0 0 18.842-13.38 36.523-25.6-8.294-9.182-16.691-18.125-24.747-27.921-7.817-9.591-15.121-19.695-22.665-29.594-20.309 11.878-47.514 26.419-47.514 26.419l-18.159-23.893c0 0 24.917-17.681 44.305-30.788-12.527-17.51-24.678-35.191-36.284-52.873-19.797 11.401-44.271 24.474-44.271 24.474l-18.125-23.859c0 0 24.030-17.033 43.213-30.071-49.152-78.234-87.415-152.235-108.442-195.209-2.833 2.15-5.871 4.233-8.465 6.554-75.913 71.339-76.015 295.185 63.181 447.693 134.861 147.797 349.696 169.984 432.879 110.217-39.492-21.982-104.175-61.918-170.906-118.886-20.48 12.151-50.586 28.297-50.586 28.297v0z" />
<glyph unicode="&#xe644;" glyph-name="untitled99" d="M817.254 196.403c-31.812-41.677-83.661-55.671-115.849-31.198-32.119 24.405-32.529 77.926-0.717 119.637 31.812 41.745 83.627 55.637 115.814 31.232 32.256-24.439 32.563-77.961 0.751-119.671v0zM683.349 381.474v-57.583h-339.217v57.583l-75.332 85.811c0.239-0.307-15.189 13.79-15.189 36.113 0 28.194 22.835 50.927 50.995 50.927 22.767 0 41.882-14.95 48.401-35.533l75.878-53.316c0 0 35.738-18.432 89.771-18.534 54.101-0.102 95.778 18.534 95.778 18.534l66.662 53.316c6.588 20.548 25.6 35.533 48.401 35.533 28.092 0 50.995-22.733 50.995-50.927 0-20.787-10.479-31.744-16.862-37.615l-80.282-84.309zM519.407 460.015c-78.268 0-141.687 63.351-141.687 141.414s63.386 141.38 141.687 141.38c78.302 0 141.687-63.317 141.687-141.38s-63.42-141.414-141.687-141.414v0zM416.154 577.229c0 0 22.869-58.436 100.181-58.436 77.346 0 107.145 58.436 107.145 58.436h-207.326zM323.243 284.877c31.744-41.677 31.471-95.232-0.717-119.671-32.222-24.439-84.002-10.479-115.849 31.232-31.778 41.677-31.505 95.198 0.683 119.637 32.29 24.439 84.105 10.513 115.883-31.198v0zM344.405 296.414v6.144h338.671v-2.048c-5.052-4.745-10.069-9.796-14.473-15.599-27.75-36.42-31.095-81.954-9.967-109.124h-294.025c21.163 27.17 17.783 72.738-9.899 109.124-3.277 4.198-6.793 7.885-10.308 11.503v0z" />
<glyph unicode="&#xe645;" glyph-name="untitled98" d="M532.719 635.29h-111.855l-38.127 175.548h186.675l-36.693-175.548zM483.294 49.289l-186.743 156.365 123.494 396.663h114.995l120.661-396.663-172.407-156.365zM675.806 308.463l-86.255 238.933 137.933-185.344v-53.555l-51.678-0.034z" />
<glyph unicode="&#xe646;" glyph-name="untitled97" d="M830.942 662.323c-21.879-36.762-59.46-56.491-93.491-52.838l-71.543-119.228 22.050-49.323c0 0 84.548-56.115 103.083-101.683 40.414-98.953-6.519-174.251-6.519-174.251l-138.718 256.239-154.965-222.891c0 0-37.922 80.179 13.517 173.909 23.723 43.179 114.108 89.225 114.108 89.225l18.057 30.447-49.766 109.67c-34.236 0.273-69.359 24.235-86.835 63.215-22.562 50.244-7.27 105.916 34.099 124.416 41.37 18.466 88.439-9.421 110.967-59.699 18.569-41.37 14.336-84.685-10.718-109.124l-12.595-31.232 31.198-69.734 48.401 81.681-8.875 32.461c-22.084 27.136-21.333 70.622 1.877 109.636 28.194 47.309 78.131 69.632 117.146 46.558 38.912-23.074 47.718-80.111 19.524-127.454v0zM603.75 711.646c-9.25 20.617-29.184 31.846-47.070 23.859-17.852-7.953-24.849-31.164-15.599-51.78 9.25-20.651 31.266-30.925 49.118-22.972 17.852 7.987 22.801 30.242 13.551 50.893v0zM782.746 738.987c-16.862 9.967-37.922 1.161-49.493-18.295s-9.25-42.121 7.578-52.087c16.862-9.967 39.868-2.253 51.405 17.135 11.571 19.49 7.305 43.315-9.489 53.248v0zM361.267 663.347l56.627 96.939 55.091-96.939 1.024-22.63h-112.708v22.63h-0.034zM496.367 550.195h-157.798v67.891h157.798v-67.891zM565.623 503.467l23.825-23.45c-33.69-8.67-112.094-68.676-143.633-166.537-21.982-68.164 52.156-161.655 52.156-161.655l112.64 174.285v-182.989l-23.586-23.927-44.134-22.118h-249.788l-45.5 21.948-22.972 22.903v317.85l45.227 44.271 68.369 23.757 160.836-0.205 66.56-24.132z" />
<glyph unicode="&#xe647;" glyph-name="untitled96" d="M813.739 92.467h-311.057c0 0-23.791 10.547-23.791 23.757v666.795c0 13.175 10.684 23.825 23.791 23.825l308.122 0.205c13.141 0 25.259-9.182 25.259-22.357v-668.467c0 0-9.114-23.757-22.323-23.757v0zM574.157 759.228h-47.65v-47.616h47.65v47.616zM574.157 687.753h-47.65v-47.616h47.65v47.616zM574.157 616.346h-47.65v-47.616h47.65v47.616zM574.157 544.87h-47.65v-47.65h47.65v47.65zM574.157 473.463h-47.65v-47.616h47.65v47.616zM574.157 401.988h-47.65v-47.65h47.65v47.65zM574.157 330.547h-47.65v-47.616h47.65v47.616zM574.157 259.106h-47.65v-47.65h47.65v47.65zM574.157 187.665h-47.65v-47.65h47.65v47.65zM645.53 759.228h-47.582v-47.616h47.582v47.616zM645.53 687.753h-47.582v-47.616h47.582v47.616zM645.53 616.346h-47.582v-47.616h47.582v47.616zM645.53 544.87h-47.582v-47.65h47.582v47.65zM645.53 473.463h-47.582v-47.616h47.582v47.616zM645.53 401.988h-47.582v-47.65h47.582v47.65zM645.53 330.547h-47.582v-47.616h47.582v47.616zM645.53 259.106h-47.582v-47.65h47.582v47.65zM717.005 759.228h-47.616v-47.616h47.616v47.616zM717.005 687.753h-47.616v-47.616h47.616v47.616zM717.005 616.346h-47.616v-47.616h47.616v47.616zM717.005 544.87h-47.616v-47.65h47.616v47.65zM717.005 473.463h-47.616v-47.616h47.616v47.616zM717.005 401.988h-47.616v-47.65h47.616v47.65zM717.005 330.547h-47.616v-47.616h47.616v47.616zM717.005 259.106h-47.616v-47.65h47.616v47.65zM788.48 759.228h-47.65v-47.616h47.65v47.616zM788.48 687.753h-47.65v-47.616h47.65v47.616zM788.48 616.346h-47.65v-47.616h47.65v47.616zM788.48 544.87h-47.65v-47.65h47.65v47.65zM788.48 473.463h-47.65v-47.616h47.65v47.616zM788.48 401.988h-47.65v-47.65h47.65v47.65zM788.48 330.547h-47.65v-47.616h47.65v47.616zM788.48 259.106h-47.65v-47.65h47.65v47.65zM788.48 187.665h-47.65v-47.65h47.65v47.65zM431.241 92.467h-238.148c-13.175 0-23.859 10.547-23.859 23.757v404.821c0 13.141 10.684 23.825 23.859 23.825h238.148c13.175 0 23.791-10.684 23.791-23.825v-404.821c0-13.21-10.615-23.757-23.791-23.757v0zM264.533 497.254h-47.65v-71.407h47.65v71.407zM264.533 401.988h-47.65v-71.475h47.65v71.475zM264.533 306.722h-47.65v-71.441h47.65v71.441zM264.533 211.456h-47.65v-71.475h47.65v71.475zM335.974 497.254h-47.616v-71.407h47.65v71.407h-0.034zM335.974 401.988h-47.616v-71.475h47.65v71.475h-0.034zM335.974 306.722h-47.616v-71.441h47.65v71.441h-0.034zM407.415 497.254h-47.65v-71.407h47.65v71.407zM407.415 401.988h-47.65v-71.475h47.65v71.475zM407.415 306.722h-47.65v-71.441h47.65v71.441zM407.415 211.456h-47.65v-71.475h47.65v71.475z" />
<glyph unicode="&#xe648;" glyph-name="untitled95" d="M784.486 134.383c0 0-23.415 1.57-23.415 26.658v-0.785l-498.176-0.751v1.57c0-25.088-23.415-26.658-23.415-26.658-32.7 0-26.419 25.088-26.419 25.088v401.374c0-14.097 49.835-25.088 49.835-25.088v-175.616l498.21-0.751v176.367c0 0 49.869 10.991 49.869 25.088v-401.374c0 0 6.178-25.122-26.487-25.122v0zM736.188 385.297h-448.375l25.668 50.961 397.824-0.751 24.883-50.21zM737.28 561.391c-74.752 0-74.24 74.752-74.24 74.752 0-75.298-76.322-75.298-76.322-75.298-76.22 0-76.22 73.728-76.22 73.728 0-75.298-71.612-73.728-71.612-73.728-77.892 0-76.288 75.298-76.288 75.298 0-75.298-74.752-75.298-74.752-75.298-79.462-1.57-74.274 75.298-74.274 75.298v25.088h597.436v-26.658c-0.034-75.264-73.728-73.182-73.728-73.182v0zM236.407 636.655c0 0 1.57-50.688 52.907-50.688 0 0 48.299 3.652 48.299 50.688h-101.205zM385.843 636.655c0 0 1.57-50.688 53.009-50.688 0 0 48.23 3.652 48.23 50.688h-101.239zM535.381 636.655c0 0 1.57-50.688 52.907-50.688 0 0 48.299 3.652 48.299 50.688h-101.205zM684.817 636.655c0 0 1.536-50.688 52.941-50.688 0 0 48.196 3.652 48.196 50.688h-101.137zM785.954 686.319h-547.942c-13.79 0-24.917 11.196-24.917 25.088l49.835 50.176h498.21c39.799-28.194 49.869-50.176 49.869-50.176-0.034-13.858-11.264-25.088-25.054-25.088v0z" />
<glyph unicode="&#xe649;" glyph-name="untitled94" d="M162.133 226.133v443.733h699.733v-443.733h-699.733zM810.667 618.667h-597.333v-341.333h597.333v341.333zM349.867 482.133h-102.4v102.4h102.4v-102.4zM349.867 311.467h-102.4v102.4h102.4v-102.4zM503.467 482.133h-102.4v102.4h102.4v-102.4zM640 311.467h-238.933v102.4h238.933v-102.4zM776.533 482.133h-102.4v102.4h102.4v-102.4zM776.533 311.467h-102.4v102.4h102.4v-102.4zM537.6 584.533h102.4v-102.4h-102.4v102.4z" />
<glyph unicode="&#xe64a;" glyph-name="untitled93" d="M502.818 225.178c-238.421 72.977-198.861 412.979-198.861 412.979 149.333-57.481 198.861 30.583 198.861 30.583 65.331-92.74 214.153-30.583 214.153-30.583 46.285-325.325-214.153-412.979-214.153-412.979v0zM655.77 607.539c0 0-18.876-19.149-61.201-15.292-41.847 3.789-91.75 30.583-91.75 30.583v-152.986h-137.66c0 0 1.399-70.656 30.583-107.042 31.915-39.936 107.11-76.527 107.11-76.527v168.277h152.917v152.986z" />
<glyph unicode="&#xe64b;" glyph-name="untitled92" d="M448.683 566.443l43.861 45.67v-109.978c0-11.025 8.533-19.9 19.081-19.9s19.081 8.875 19.081 19.9v110.899l44.681-46.455c7.475-7.748 19.456-7.748 26.931 0 7.475 7.817 7.475 20.412 0 28.16l-74.684 77.756c-0.614 0.853-0.922 1.809-1.638 2.594-0.034 0-0.102 0.034-0.102 0.068-3.55 4.198-8.499 7.031-14.268 7.031-7.987 0-14.78-5.154-17.613-12.425l-72.26-75.196c-7.475-7.748-7.475-20.412 0-28.126 7.373-7.748 19.456-7.748 26.931 0zM575.317 332.356l-43.861-45.67v109.943c0 11.059-8.533 19.934-19.081 19.934s-19.081-8.875-19.081-19.934v-110.865l-44.681 46.455c-7.475 7.748-19.456 7.748-26.931 0-7.475-7.817-7.475-20.412 0-28.194l74.684-77.722c0.614-0.853 0.922-1.809 1.638-2.594 0.034 0 0.102-0.068 0.102-0.068 3.55-4.198 8.499-7.066 14.268-7.066 7.987 0 14.78 5.188 17.613 12.459l72.26 75.196c7.475 7.748 7.475 20.412 0 28.126-7.373 7.748-19.456 7.748-26.931 0z" />
<glyph unicode="&#xe64c;" glyph-name="untitled91" d="M804.762 487.595c-38.468-41.574-77.005-83.115-115.61-124.723 0-2.594 0.205-6.451 0.887-12.254 2.935-23.484 5.837-47.206 8.704-70.724 3.857-30.993 7.748-61.884 11.503-92.809 3.106-24.917-27.785-34.85-46.251-26.146-50.551 23.996-101.274 47.991-151.859 71.919-1.502-0.614-2.628-1.058-4.369-1.946-21.333-10.138-42.667-20.275-64.068-30.345-27.887-13.278-55.808-26.453-83.797-39.663-18.398-8.738-49.254 1.195-46.217 26.146 4.813 38.741 9.591 77.517 14.37 116.326l2.185 64.341c-15.94 17.34-31.915 34.406-47.821 51.61-21.129 22.767-42.223 45.534-63.317 68.267-14.37 15.599-10.274 46.080 13.585 50.654 56.388 10.889 112.913 21.879 169.301 32.802 1.297 1.98 2.697 4.403 4.574 7.851 11.469 20.821 22.801 41.609 34.202 62.464 14.916 27.341 29.73 54.613 44.646 81.954 6.315 11.503 16.486 15.599 26.522 14.78 10.001 0.819 20.275-3.277 26.556-14.78 27.648-50.586 55.262-101.171 82.773-151.689 2.389-0.717 5.291-1.468 9.626-2.321 23.211-4.437 46.319-8.943 69.393-13.517 30.345-5.837 60.621-11.674 90.829-17.579 24.098-4.574 28.194-35.021 13.653-50.62v0z" />
<glyph unicode="&#xe64d;" glyph-name="untitled90" d="M814.729 488.926c-21.811-23.484-43.657-47.002-65.468-70.588-16.452-17.783-33.007-35.43-49.391-53.35h-72.875c1.365 7.953 3.516 15.087 6.997 20.753 21.777 36.727 56.627 70.076 90.249 102.161-53.18 5.188-116.77 12.22-142.336 37.41-29.047 28.57-49.903 73.967-69.222 116.702-20.582-48.094-45.363-103.253-77.107-121.617-34.509-19.866-86.596-25.805-134.485-31.232 38.537-34.543 81.818-74.24 91.989-110.865 10.479-37.581-0.853-91.546-11.162-139.878 43.349 25.6 92.126 53.18 130.082 53.18 37.683 0 85.948-27.238 128.99-52.599-4.233 19.081-8.636 39.526-11.742 59.46h72.806c4.983-40.141 9.865-80.247 14.882-120.286 3.209-25.771-28.74-36.045-47.753-27.034-28.945 13.653-57.754 27.307-86.596 41.062-22.084 10.411-44.134 20.855-66.219 31.369-1.843 0.819-2.97 1.331-4.54 2.014-52.292-24.815-104.687-49.596-156.979-74.445-19.149-9.011-51.063 1.263-47.889 27.034 3.959 32.017 7.885 63.898 11.844 95.949 3.072 24.371 6.076 48.879 9.148 73.182 0.683 5.973 0.853 10.001 0.853 12.698-39.902 43.008-79.667 85.948-119.501 128.922-14.985 16.145-10.752 47.616 14.029 52.361 31.266 6.076 62.601 12.117 93.935 18.227 23.825 4.676 47.753 9.318 71.714 13.926 4.506 0.853 7.475 1.604 9.967 2.389 28.467 52.224 57.003 104.516 85.572 156.843 6.519 11.844 17.101 16.111 27.477 15.223 10.377 0.853 20.855-3.379 27.409-15.258 15.394-28.297 30.72-56.457 46.148-84.719 11.844-21.538 23.552-43.076 35.396-64.58 1.946-3.55 3.379-6.076 4.71-8.124 58.334-11.332 116.702-22.665 175.036-33.929 24.713-4.779 28.979-36.25 14.029-52.361v0zM814.729 488.926c-39.799-42.974-79.633-85.914-119.501-128.922 0-2.697 0.171-6.724 0.887-12.698 3.072-24.303 6.042-48.811 9.011-73.182 4.028-32.017 7.987-63.932 11.913-95.949 3.209-25.771-28.74-36.045-47.855-27.034-52.258 24.849-104.653 49.63-156.979 74.445-1.536-0.683-2.697-1.161-4.506-2.014-22.084-10.513-44.1-20.958-66.219-31.369-28.843-13.756-57.685-27.409-86.63-41.062-19.046-9.011-50.961 1.263-47.787 27.034 4.983 40.073 9.899 80.179 14.916 120.286h72.772c-3.072-19.934-7.509-40.414-11.742-59.46 43.076 25.361 91.307 52.599 129.024 52.599 37.956 0 86.699-27.58 130.082-53.18-10.377 48.333-21.641 102.298-11.127 139.878 10.172 36.625 53.419 76.322 91.989 110.865-47.889 5.393-100.011 11.366-134.485 31.232-31.744 18.398-56.525 73.557-77.107 121.617-19.319-42.769-40.175-88.166-69.222-116.702-25.566-25.19-89.19-32.222-142.37-37.41 33.621-32.085 68.54-65.434 90.283-102.161 3.447-5.666 5.666-12.8 6.997-20.753h-72.909c-16.452 17.886-32.973 35.567-49.425 53.35-21.845 23.586-43.622 47.104-65.468 70.588-14.916 16.145-10.684 47.616 14.029 52.361 58.334 11.264 116.702 22.63 175.070 33.929 1.331 2.048 2.799 4.54 4.71 8.124 11.844 21.504 23.552 43.042 35.362 64.58 15.394 28.262 30.754 56.422 46.148 84.719 6.554 11.878 17.033 16.145 27.409 15.258 10.377 0.853 20.924-3.379 27.477-15.258 28.57-52.326 57.139-104.585 85.606-156.843 2.458-0.751 5.427-1.536 9.967-2.389 23.962-4.608 47.889-9.25 71.748-13.926 31.369-6.076 62.669-12.117 93.901-18.227 24.815-4.745 29.047-36.215 14.029-52.326v0z" />
<glyph unicode="&#xe64e;" glyph-name="untitled89" d="M641.161 641.707l-236.305-236.817c-23.108-22.972-60.723-22.972-83.866 0-23.177 22.869-23.177 60.075 0 83.012l236.305 236.817c23.211 22.938 60.689 22.938 83.866 0 23.177-22.903 23.177-60.075 0-83.012v0zM639.249 171.281c-23.142-22.903-60.723-22.903-83.866 0l-234.359 234.94c-23.177 22.903-23.177 60.075 0 83.012 23.142 22.938 60.723 22.938 83.866 0l234.394-234.837c23.040-23.006 23.040-60.245-0.034-83.115v0z" />
<glyph unicode="&#xe64f;" glyph-name="untitled88" d="M888.252 655.735c0 0-16.998-14.302-33.621 2.423l-46.012 46.251c0 0-19.763 17.783-3.072 34.611 35.328 35.601 65.126 1.365 65.126 1.365l17.579-17.613c33.28-33.519 0-67.038 0-67.038v0zM838.622 607.915l-249.617-251.324c0 0 14.199 19.217-22.187 55.876 0 0-38.093 43.657-55.808 25.839l246.17 251.017c20.139 20.241 37.308-3.345 37.308-3.345l43.52-43.827c19.388-19.593 0.614-34.236 0.614-34.236v0zM480.802 296.858l-45.056-17.442 16.111 50.825c32.256-7.373 28.945-33.382 28.945-33.382v0zM550.161 395.674c33.28-33.485 21.163-56.9 21.163-56.9l-72.294-27.716c3.584 18.261-7.68 26.453-7.68 26.453-9.353 11.537-24.951 11.537-24.951 11.537l29.15 73.284c24.439 10.001 54.613-26.658 54.613-26.658v0zM275.251 201.523h451.925v178.278h61.645v-239.036h-575.147v546.714h410.829v-60.723h-349.252v-425.233z" />
<glyph unicode="&#xe650;" glyph-name="untitled87" d="M224.7 149.333v597.367h158.14v-597.367h-158.14zM448.751 597.333v149.367h373.316v-149.367h-373.316zM448.751 373.316v149.333h373.316v-149.333h-373.316zM448.751 149.333v149.333h373.316v-149.333h-373.316z" />
<glyph unicode="&#xe651;" glyph-name="untitled86" d="M517.803 707.379c0-38.741 29.867-65.024 66.697-65.024s66.697 26.317 66.697 65.024c0 38.775-29.867 65.058-66.697 65.058s-66.697-26.283-66.697-65.058v0zM373.419 485.41c0-7.714-1.434-26.761 0.137-38.298l58.231 68.71c12.049 12.937 25.975 22.016 33.109 19.524 7.1-2.423 11.025-10.65 8.704-18.295l-96.29-312.798c-11.127-36.557 9.865-72.499 60.962-80.657 74.923 0 119.398 49.664 163.157 114.039 0 7.714 2.56 27.955 0.99 39.424l-58.197-68.676c-12.049-12.937-27.034-21.982-34.133-19.524-6.588 2.287-10.445 9.455-9.148 16.555l96.973 314.3c8.090 39.868-13.79 76.186-60.177 80.862-48.742 0.034-120.593-50.79-164.318-115.166v0z" />
<glyph unicode="&#xe652;" glyph-name="untitled85" d="M792.986 191.522l-513.843 1.263c-20.241-2.492-60.143 37.171-60.655 60.279v328.294c0 22.596 18.159 41.062 41.062 41.062h41.028v82.057h184.661v-82.057h307.78c22.903 0 40.994-18.5 40.994-41.062v-348.774c0-22.63-18.125-41.062-41.028-41.062v0zM435.2 652.629h-83.046v-61.406h83.046v61.406zM455.919 551.185c-80.247 0-145.306-64.171-145.306-143.258 0-79.121 65.058-143.258 145.306-143.258s145.34 64.137 145.34 143.258c0 79.087-65.092 143.258-145.34 143.258v0zM736.188 580.574c-22.903 0-41.574-18.33-41.574-40.892 0-22.63 18.671-40.96 41.574-40.96 22.972 0 41.574 18.33 41.574 40.96 0 22.562-18.603 40.892-41.574 40.892v0zM455.953 312.422c-51.61 0-93.457 41.233-93.457 92.058 0 50.859 41.847 92.092 93.457 92.092 51.541 0 93.389-41.233 93.389-92.092 0.034-50.825-41.813-92.058-93.389-92.058v0z" />
<glyph unicode="&#xe653;" glyph-name="untitled84" d="M334.848 388.471l-1.468-74.615-140.083 134.895 140.083 127.761 1.468-74.615h249.446v-113.425h-249.446zM323.379 161.655v136.055h45.329v-68.062h272.179v453.598h-272.179l0.614-89.259-45.943-1.399v158.72h430.899v-589.619l-430.899-0.034z" />
<glyph unicode="&#xe654;" glyph-name="untitled83" d="M767.010 429.841l-97.007 97.007h56.832c-0.546 1.399-1.092 2.799-1.638 4.233-33.69 85.402-116.975 145.818-214.357 145.818-127.283 0-230.434-103.151-230.434-230.4 0-127.283 103.151-230.434 230.434-230.434 93.559 0 174.114 55.842 210.227 135.953 0.341 0.785 0.546 1.604 0.887 2.389l61.815-61.406c-0.444-0.717-0.717-1.604-1.161-2.253-0.068-0.171-0.171-0.375-0.239-0.478-54.545-94.208-156.399-157.594-273.067-157.594-174.114 0-315.255 141.244-315.255 315.324 0 174.114 141.141 315.255 315.255 315.255 145.545 0 268.083-98.645 304.401-232.687 0.307-1.229 0.41-2.56 0.717-3.755h49.596l-97.007-96.973z" />
<glyph unicode="&#xe655;" glyph-name="untitled82" d="M785.647 106.53l-120.32 126.123c-48.879-38.059-109.158-60.928-174.66-60.928-162.236 0-293.751 138.274-293.751 308.838 0 170.53 131.55 308.804 293.751 308.804 162.27 0 293.717-138.274 293.717-308.804 0-79.394-28.74-151.586-75.537-206.234l118.34-124.143-41.54-43.657zM710.383 481.894c0 127.898-98.679 231.595-220.331 231.595-121.685 0-220.331-103.697-220.331-231.595 0-127.966 98.645-231.629 220.331-231.629 121.651 0 220.331 103.663 220.331 231.629v0z" />
<glyph unicode="&#xe656;" glyph-name="untitled81" d="M705.297 317.986c-27.546 0-52.326-11.435-70.042-29.73l-262.246 131.106c0.717 5.052 1.195 10.206 1.195 15.462s-0.478 10.377-1.195 15.394l262.246 131.14c17.715-18.295 42.496-29.696 70.042-29.696 53.726 0 97.382 43.588 97.382 97.348 0 53.794-43.622 97.382-97.382 97.382-53.794 0-97.382-43.588-97.382-97.382 0-5.257 0.375-10.377 1.229-15.428l-262.349-131.14c-17.715 18.33-42.496 29.73-70.007 29.73-53.726 0-97.382-43.622-97.382-97.382s43.657-97.417 97.382-97.417c27.511 0 52.326 11.366 70.007 29.73l262.349-131.174c-0.853-4.983-1.229-10.206-1.229-15.394 0-53.76 43.554-97.417 97.382-97.417 53.726 0 97.382 43.622 97.382 97.417 0 53.862-43.657 97.451-97.382 97.451v0z" />
<glyph unicode="&#xe657;" glyph-name="untitled80" d="M255.898 735.13h518.758c0 0 33.69-2.15 42.291-37.99v-73.796l-232.175-237.193v-231.424c0 0-2.628-22.938-53.282-34.406v395.537l144.282 128h-320.99l138.991-128v-395.537c0 0-48.708 7.168-53.487 38.195v224.529l-233.131 224.529v81.681c0 0-4.301 38.707 48.742 45.875z" />
</font>
</defs>
</svg>
